<svg xmlns="http://www.w3.org/2000/svg" width="100%" viewBox="0 0 1024 1024" height="150" xmlns:v="https://vecta.io/nano"><path d="M327.564 655.396c9.099-1.873 10.436-4.354 5.744-10.344-.371-.474-.553-1.095-.927-1.862 3.566-1.752 5.799.854 7.555 2.423 3.842 3.434 5.528 1.265 7.016-1.97 1.021-2.22 1.666-4.613 2.86-8.014-2.807 2.692-3.971 5.368-6.777 6.976-.65-2.93 2.791-4.041 1.967-7.218-8.333 3.979-14.404-1.496-20.993-5.611 5.839-.478 11.618-2.467 17.494.229 5.491 2.52 8.272 1.033 9.354-5.022.549-3.075 1.508-6.174.105-10.354-6.363 8.441-14.636 3.996-22.505 3.925 6.054-2.687 9.163-10.301 17.134-9.474 6.175.641 7.136-.166 7.208-6.636l.246-40.989.555-30.963c.255-5.894-3.751-8.338-7.677-11.612-1.613 4.295-1.692 7.526 1.256 11.258 5.863 7.422 4.597 14.403-3.786 22.567 2.29-6.954-6.329-10.182-4.219-18.079-9.331 12.923-9.191 25.899-6.41 39.237.323 1.551.816 2.975 2.69 3.862 9.534 4.514 11.954 10.455 8.914 21.132-8.441-3.224-15.071-7.751-13.289-18.66-1.131 5.599-.434 11.177-2.3 16.294-1.863 5.107-6.068 8.958-7.963 14.799-4.372-3.536-2.766-8.463-4.371-12.216-1.901-4.443.699-8.052 3.053-11.509s6.778-5.352 7.999-10.274c-5.978 4.892-9.772 5.115-16.617 1.14 3.069-4.376 7.387-5.952 12.466-5.749 3.492.14 5.063-.966 5.083-4.857.038-7.064.7-14.124 1.174-22.475-5.709 6.72-11.586 9.597-19.061 5.281.165-4.963 5.198-10.578 10.925-9.692 9.842 1.523 13.926-3.51 16.474-11.598.591-1.878 1.569-3.633 2.776-6.365-13.035-2.835-14.647-14.602-19.38-23.988-.579-1.149-1.003-2.559 1.34-4.074 3.394 8.088 13.327 7.101 18.697 14.242.752-5.454-.767-10.004-2.07-14.103-1.972-6.202-3.36-12.938-8.294-17.876-3.834-3.837-4.715-8.958-5.706-14.326-4.227 1.523-7.703 3.644-11.093 6.035-2.169-6.939.275-12.797 7.187-15.144 5.327-1.809 7.069-4.854 6.374-10.053-.453-3.383.372-6.62 1.62-9.752 3.511-8.81 6.731-17.756 11.783-25.859 1.558-2.499 1.785-5.347 2.343-8.103.358-1.77.486-3.579 2.092-5.352 2.329 4.819-3.227 10.377 1.893 14.65 3.326-2.503 4.976-5.705 4.06-9.553-1.134-4.762.007-10.33-5.051-13.887-1.436-1.01.191-3.782-.986-5.657-2.745-4.376-6.763-6.621-11.614-7.993-2.317-.655-6.838.467-6.475-2.711.402-3.527 4.756-1.72 7.271-1.724l195.938-.091c1.302 0 2.604.123 4.196.203 1.025 5.765.373 11.401.474 16.994.114 6.33.052 12.665-.015 18.997-.015 1.374.458 3.3-1.868 3.37-1.918.058-1.874-1.68-2.089-2.882-1.4-7.823-6.863-12.416-13.141-16.113-14.045-8.269-29.688-11.593-45.565-13.859-29.314-4.182-58.84-2.765-88.3-3.053-3.575-.035-5.081 1.111-5.046 4.885.142 15.33-.907 30.747.423 45.962.791 9.05-.913 17.766-.533 26.664.186 4.372 1.429 6.586 5.778 6.805 2.921.147 5.354 1.585 7.95 2.733 6.483 2.866 6.396 9.102 8.131 14.557-11.073.23-16.863-2.369-21.283-9.99v29.682c.58.516 1.206.295 1.741-.12 15.809-12.273 33.314-12.831 51.686-7.531 10.269 2.962 19.755 7.98 29.874 11.332 6.683 2.214 13.48 3.609 20.583 3.422 9.589-.252 16.355-4.837 19.802-13.774.494-1.28.657-2.755 2.531-2.3 1.859.451 1.457 2.075 1.328 3.299-1.214 11.602-7.488 19.804-17.691 24.87-12.473 6.193-25.476 5.43-38.518 1.896-10.92-2.958-20.456-8.79-30.027-14.539-6.453-3.876-12.985-7.584-20.703-8.213-7.03-.572-12.984 1.728-17.836 6.63.493 3.144 3.65 4.76 3.376 7.901-6.525-1.163-6.667-1.16-6.509 5.695.126 5.443-.595 10.877 1.06 16.359.691 2.292-1.218 5.221-1.177 8.099.159 11.163.695 22.377-.137 33.48-.688 9.18 2.288 16.786 6.677 24.284.316.54.467 1.176.726 1.851-.582.341-.967.746-1.383.78-1.906.158-4.688-2.312-5.482.984-.689 2.858-1.533 6.356 2.232 8.393 1.136.615 2.177 1.575 2.986 2.595 3.961 4.997 8.13 8.11 15.322 5.87 5.127-1.597 15.513 5.452 17.819 10.749.862 1.98.254 3.478-1.999 3.404-3.217-.106-6.245.829-9.368 1.204-6.619.794-9.954-3.365-12.733-8.438-.85 6.827.525 9.509 6.189 12.777 4.113 2.372 8.884 3.918 10.723 9.141.849 2.411 4.29 1.381 6.626 4.053-5.078 2.823-10.092 2.67-14.981 2.203-4.003-.382-6.685-2.979-7.592-6.947-1.518-6.64-3.017-13.293-4.202-19.997-1.156-6.542-5.562-10.357-10.229-14.574-1.406 2.597.428 3.436.979 4.69 2.521 5.737 4.114 11.771 3.331 17.96-.716 5.662-1.484 11.087 2.777 16.465 5.355-2.472 9.279.076 11.544 6.003.722 1.889 2.372 2.116 4.124 2.112l18.997.014c2.271.028 3.532-.917 4.75-2.849 3.11-4.93 5.444-10.573 11.696-14.028-1.972 6.102.344 10.299 4.005 14.18 1.341 1.421 2.726 1.925 4.416 1.533 4.698-1.09 9.564-.549 13.879-4.38 2.917-2.59 8.653-1.837 8.823-7.564 2.301.461 2.186 1.826 2.714 2.809.937 1.744-.202 5.068 2.879 5.095 3.252.029 6.717-.277 9.15-3.062 2.174-2.489 3.967-6.655 7.551-1.316.483.72 1.532.286 2.335.028 10.707-3.433 20.947-7.637 29.033-15.93 4.37-4.482 6.956-9.661 7.812-15.817.186-1.337-.178-3.437 2.054-3.355 2.527.092 1.985 2.301 1.99 3.829l.101 40.494c.072 4.562-2.528 4.643-5.763 4.637-14.998-.025-29.996.048-44.994-.024-3.586-.017-6.729.595-9.879 2.633-6.615 4.28-14.113 4.344-22.976 2.976 5.007 6.388 6.925 12.583 3.548 19.365-1.903 3.822-5.319 5.991-9.162 8.076 4.045-7.521-1.319-15.552 2.107-23.101 1.442-3.178-1.985-3.938-4.3-3.44-4.045.871-8.193 1.867-11.887 3.656-11.673 5.655-22.704 3.85-33.255-2.511-4.32-2.604-8.91-4.458-13.4-6.613-2.69-1.291-4.188-.847-5.368 2.078-1.762 4.37-3.943 8.581-8.599 10.799 1.55-4.481 5.831-7.523 6.355-12.988-2.917 3.174-4.482-.826-6.836-.821-5.497.012-10.995.002-16.492-.002-1.922-.001-2.966.926-3.594 2.782-1.314 3.88-.024 6.3 4.506 7.84l14.533 4.87c-4.609 4.671-5.06 12.537-12.974 13.655-4.536.641-9.069 2.002-14.894-1.028 6.092-2.489 8.602-7.453 12.331-10.874-1.803-.341-3.745.825-5.817 1.217-2.931.555-5.42 2.392-8.959.878-2.061-.881-4.977 1.211-6.682 3.526-1.909 2.592-4.295 4.093-7.502 3.132-1.365-1.915.271-3.369.244-5.146-3.481.039-4.37 3.765-8.375 5.517 1.444-6.668 3.13-12.506 6.431-17.144 4.189-5.887 10.912-4.187 17.585-2.558-1.819-4.664-4.049-7.245-8.934-6.939-2.008.126-5.563 1.341-4.839-3.419m7.253-228.134c-6.53 10.39-3.839 22.114-4.5 33.469 5.2-.124 10.57 1.018 13.704 5.816 2.325 3.56 3.158 8.093 7.927 10.077-2.919 2.411-5.897 2.953-7.72 5.287 1.694 3.475 5.341 4.006 8.871 6.503.131-12.094.966-23.306.146-34.534-.198-2.714.824-6.045-1.655-8.044-3.542-2.855-5.045-7.142-4.307-10.646 1.812-8.599-5.214-14.589-4.597-23.595-3.992 5.328-5.157 10.452-7.87 15.667m81.987 242.243c3.443-.031 6.82-.479 10.517-1.433-1.232-3.389.333-8.402-4.614-8.872-6.956-.66-14.021-.167-21.105-.167 1.815 7.043 6.81 9.242 12.964 9.884.486.051.957.256 2.238.587m-69.586-161.961c-.558-.752-.822-1.943-2.74-1.316.292 4.595 1.941 8.462 6.137 12.437.419-6.848.985-12.513 2.193-18.16.878-4.103 2.11-9.616-4.501-11.307 3.306 6.473 3.833 12.06 1.829 18.477-.622 1.991-1.267 3.019-2.918-.13m-5.003 166.997c4.374-2.071 9.185-1.686 13.86-2.355-4.333-1.172-8.803-3.055-12.93-2.478-4.154.581-5.838 6.237-10.028 8.014l9.099-3.181m101.879-15.867c-2.452.477-3.398 2.242-4.098 4.457 10.694.113 11.784-.144 14.858-3.771l-10.76-.685m24.499 2.985c.867-.687 2.277-.645 2.786-2.242-4.639-.648-7.995 3.074-12.262 3.244 2.99.14 5.958.363 9.476-1.002M349.565 418.897c.757.6 1.46 1.351 2.809.866.935-3.621-.343-4.98-4.54-4.15.549 1.125.955 1.958 1.73 3.284zm258.775 19.107l-.206 199.987c-.196 25.67-9.225 48.32-29.035 65.604-11.881 10.366-25.933 14.569-41.685 12.695-1.49-.177-3.238-.302-3.36-2.259-.133-2.141 1.641-2.264 3.15-2.238 20.573.348 30.708-12.68 37.594-29.582 6.331-15.541 7.651-32.06 7.712-48.544l-.038-202.988c-.073-14.248-.249-28.639-3.618-42.707-2.509-10.477-7.541-18.091-19.361-18.985-1.41-.107-3.365-.175-3.401-2.174-.046-2.555 2.206-2.097 3.715-2.101l70.996-.038c1.564.002 3.808-.377 3.854 2.015.044 2.292-2.215 2.219-3.765 2.32-10.685.697-15.766 7.448-18.485 16.848-3.895 13.468-2.996 27.403-3.983 41.152-.25 3.483-.067 6.997-.083 10.996zM260.026 783.109c-8.811 6.509-18.543 5.291-28.156 4.666-2.575-.168-3.063-2.034-3.059-4.276l-.065-39.932c-.024-2.929 1.109-4.401 3.996-4.438 5.153-.067 10.35-.522 15.453-.032 16.397 1.577 19.288 11.172 19.659 22.807.245 7.688-1.446 15.273-7.827 21.205m.64-17.86c.003-16.236-5.673-21.613-20.937-19.974-2.108.226-3.525.793-3.581 3.166l-.65 28.923c-.024 1.977.553 3.797 3.172 4.361 12.694 2.738 20.217-2.536 21.997-16.476zm234.626 1.809l-.279-12.852c-.037-2.322.28-4.443 3.4-4.368 2.956.071 2.893 2.198 2.893 4.24l-.082 27.99c-.022 1.811 1.054 4.447-1.658 5.133-2.824.715-5.446.297-7.359-2.654-4.076-6.286-8.441-12.385-12.715-18.542-.918-1.322-1.952-2.563-3.374-4.417-.828 7.47-.997 14.178-.288 20.937.206 1.962.874 4.613-2.582 4.857-3.502.247-3.574-2.096-3.568-4.584l.047-27.99c.013-1.869-.633-4.263 2.195-4.867 2.454-.524 4.578-.045 6.121 2.229l11.894 17.288c1.118 1.632 2.105 3.362 4.066 4.639 1.792-2.1 1.152-4.463 1.289-7.038zm140.589 13.803l-.02-25.968c.01-1.891-.585-4.304 2.134-4.946 2.599-.613 4.831-.068 6.511 2.411l15.09 21.757c.367.527.812.999 2.068 2.527l.005-19.808.12-4.493c.135-1.89 1.382-2.47 3.096-2.47 1.96 0 2.597 1.13 2.596 2.88l-.002 33.816c-4.789 1.947-7.531.455-9.95-3.382-4.497-7.133-9.422-13.996-15.339-20.672l-.004 21.18c-.003 2.058-.603 3.597-3.09 3.587-1.726-.007-2.947-.563-3.109-2.446-.1-1.159-.079-2.328-.106-3.974zm-96.047 3.102c-7.435 5.094-15.387 4.564-23.395 3.713-2.054-.218-2.785-1.336-2.775-3.338l.003-30.928c-.017-2.899 1.479-3.719 4.06-3.683l12.47.007c8.391.229 13.834 4.55 15.473 12.743 1.574 7.872.351 15.223-5.835 21.486m-19.654-23.137l-.004 16.401c.016 1.591-.257 3.347 1.61 4.359 4.152 2.25 13.284-.052 15.665-4.226 3.199-5.609 3.216-11.593.189-17.115-2.648-4.832-7.731-4.967-12.693-4.976-3.364-.006-4.999 1.223-4.767 5.558zM373.32 774.903c-3.092 9.864-10.688 14.648-20.33 13.185-8.823-1.338-14.016-7.698-14.293-17.572-.209-7.472 1.133-14.362 8.18-18.565 12.448-7.423 26.493.112 27.259 14.64.138 2.611-.491 5.263-.816 8.311m-6.996.719c1.365-4.229 1.405-8.479.249-12.763-1.299-4.814-4.752-7.477-9.86-7.552-5.317-.078-8.804 2.232-10.313 6.933-1.138 3.545-1.391 7.09-.466 10.8 1.061 4.257 2.395 7.996 7.454 8.826 6.073.996 9.368-.402 12.936-6.244zm39.773 3.312c1.643 2.489 3.901 4.135 4.662 6.782-3.853 3.39-5.654 3.286-8.275-.569-1.961-2.884-3.85-5.819-5.702-8.774-1.412-2.253-3.526-2.457-5.681-1.781-2.118.665-1.557 2.568-1.431 4.231.138 1.817.049 3.649.145 5.47.105 1.999-.518 3.202-2.774 3.124-1.938-.067-3.858-.181-3.876-2.737l-.096-31.854c.001-2.349 1.546-3.091 3.652-3.075 3.821.028 7.659-.181 11.458.115 4.35.339 8.094 2.055 9.858 6.455 1.846 4.602 1.231 9.364-2.279 12.453-4.395 3.868-2.726 6.63.338 10.16m-6.204-12.563c1.428-1.553 1.911-3.403 1.856-5.48-.088-3.341-2.462-4.597-5.095-5.214-2.159-.506-5.408-1.457-6.329.912-1.347 3.466-1.567 8.032.539 10.937 1.94 2.677 5.725 1.397 9.029-1.155zm167.573 11.196l-.435-22.895c-.123-3.574 1.158-5.25 4.921-4.984 3.147.222 6.33-.078 9.482.099 4.552.256 8.56 1.73 10.504 6.3 2.116 4.974 1.148 9.758-2.653 13.289-3.126 2.903-2.762 4.984-.462 7.949 2.11 2.72 4.663 5.19 6.064 8.784-3.365 2.781-6.11 2.778-8.514-1.161-1.733-2.84-3.682-5.548-5.427-8.38-1.37-2.223-3.396-2.697-5.615-2.045-2.532.744-1.473 2.917-1.45 4.647.025 1.829.027 3.66-.049 5.487-.09 2.157-1.468 2.714-3.394 2.692-1.974-.022-3.254-.758-3.255-2.862 0-2.158.15-4.316.28-6.92m13.204-21.966c-6.742-.547-6.848-.425-6.704 7.71.093 5.255 2.903 6.967 7.709 4.658 2.61-1.254 4.016-3.284 4.137-6.271.13-3.225-1.644-4.857-5.142-6.097zm146.171-350.036c.311 9.296-6.47 16.374-16.512 17.607-7.273.893-13.829-1.217-19.915-5.077-3.362-2.132-2.932-5.202-2.196-8.413 2.61-.645 3.077 1.693 4.189 2.889 4.992 5.37 10.676 8.979 18.412 8.133 5.75-.629 10.86-4.61 11.768-9.317.836-4.333-1.558-8.492-7.358-11.246-6.604-3.135-13.565-5.517-20.177-8.636-4.699-2.217-7.37-6.296-7.267-11.619.102-5.262 2.827-9.131 7.425-11.613 2.348-1.267 4.84-2.328 7.528-2.526 5.491-.405 10.972-.401 16.377.958 5.224 1.314 5.977 2.86 4.015 8.692-2.056-.018-2.458-1.997-3.526-3.105-6.094-6.322-17.171-6.674-23.522-.661-5.2 4.923-4.695 10.788 1.404 14.555 5.292 3.269 11.437 4.506 17.118 6.859 5.701 2.362 10.798 5.377 12.238 12.521zM427.791 784.306l11.456-29.647c1.045-2.701 2.021-5.123 5.819-4.995 3.731.126 4.117 2.808 4.985 5.241l9.468 26.823c.551 1.56 1.257 3.082.95 4.945-3.726 1.61-6.108.638-6.801-3.501-.643-3.842-2.844-5.36-6.649-4.937-1.48.164-3.02.204-4.488-.008-4.818-.696-7.61 1.196-8.418 6.061-.383 2.303-1.779 3.339-4.241 3.19-2.052-.123-2.694-.944-2.081-3.173m20.44-11.826c1.821-5.44-2.223-9.21-3.598-15.212l-6.005 14.643c3.309 1.272 6.119.614 9.603.569zm267.492 8.215c-1.465 3.689-1.563 8.597-7.431 5.946-.733-2.044.397-3.638 1.037-5.299l10.766-27.883c.928-2.453 2.198-3.834 5.055-3.783 2.625.047 3.872 1.258 4.672 3.563l11.728 33.402c-4.174 1.433-6.7 1.016-7.464-3.273-.698-3.923-3.076-5.801-7.066-5.076-3.708.674-8.033-1.952-11.297 2.403m7.763-20.205c-.969 3.916-3.73 7.3-3.746 11.749 3.348.576 6.379.849 9.649-.254-.203-4.715-2.315-8.714-3.904-12.787-.719-1.843-1.213.222-1.999 1.293zm-96.582-5.746c-3.87.397-7.517.73-11.136.536-4.094-.22-5.503 1.317-5.568 5.453-.065 4.147 1.59 5.326 5.318 4.974 1.814-.171 3.654-.045 5.481-.094 1.879-.051 3.304.322 3.215 2.682-.079 2.104-1.213 2.962-3.173 2.975-1.662.011-3.337.12-4.982-.051-4.256-.443-5.907 1.189-5.88 5.634.024 4.033 1.493 5.374 5.287 5.085 2.645-.201 5.321.021 7.972-.128 3.897-.219 4.629 1.628 3.306 5.493-6.584 0-13.329.031-20.072-.016-2.505-.017-2.85-1.845-2.853-3.809l-.049-29.911c-.015-2.771 1.31-3.858 3.973-3.832l15.953-.01c3.513-.054 4.425 1.595 3.211 5.019zm-335.209 32.665c-3.46-.007-6.486-.268-9.453.035-4.895.5-6.856-1.072-6.61-6.338.411-8.812.208-17.661.02-26.489-.079-3.705 1.335-5.075 4.975-4.934 4.825.186 9.665-.028 14.496.06 4.39.081 4.45.246 3.544 5.625-4.026 0-8.148.1-12.263-.027-4.394-.136-4.016 2.851-4.148 5.755-.137 3.015.662 4.85 4.136 4.594 2.322-.171 4.663-.078 6.995-.093 1.768-.012 2.87.666 2.794 2.642-.067 1.75-.823 2.878-2.66 2.965-1.662.078-3.33.039-4.995.05-6.028.04-6.497.693-6.325 6.619.09 3.102 1.45 4.126 4.302 4.016 2.663-.103 5.333-.13 7.997-.056 2.055.057 4.667-.564 4.768 2.817.108 3.604-2.614 2.626-4.612 2.757-.829.055-1.666.004-2.96.001zm500.769-20.001c6.025 3.562 7.929 7.387 6.374 12.33-1.692 5.381-7.099 8.73-13.849 8.416-1.81-.084-3.622-.494-5.395-.914-4.983-1.18-5.677-2.658-3.773-7.862 2.074-.737 3.286 1.12 4.907 1.735 2.803 1.062 5.536 2.412 8.579.727 4.075-2.256 4.406-5.498.534-8.043-2.623-1.724-5.606-2.89-8.375-4.403-3.972-2.171-6.286-5.306-5.77-10.112.489-4.553 3.356-7.049 7.246-8.699 3.357-1.424 6.898-1.131 10.329-.599 5.293.821 5.871 2.373 3.158 7.428-2.619.266-4.353-2.238-6.948-2.268-3.02-.035-5.846.304-6.885 3.612-.996 3.169 1.464 4.408 3.74 5.573l6.129 3.078zm-463.403-17.091c4.99 1.155 5.286 3.796 3.075 7.798-6.396-2.559-13.107-5.564-18.404 1.491-3.393 4.519-3.1 14.039.362 18.486 5.397 6.932 11.921 3.258 18.33 1.216 1.689 3.802.752 6.074-2.995 7.46-7.272 2.69-15.642 1.54-19.948-3.419-6.248-7.193-6.126-15.607-3.055-23.914 2.691-7.279 8.769-10.031 16.307-9.744 1.984.075 3.961.31 6.329.625zm357.692 33.314l.02-23.887c.053-3.572-1.403-4.899-4.86-4.131-.808.18-1.632.351-2.456.392-1.769.089-3.425-.126-3.602-2.41-.162-2.085.489-3.74 2.88-3.762l22.426-.014c1.998.013 3.084 1.106 2.828 3.203-.235 1.923-1.23 2.854-3.305 2.902-7.397.173-7.398.226-7.405 7.753l-.021 19.937c-.009 1.615.277 3.52-2.188 3.721-2.382.194-4.42-.106-4.315-3.705zm63.02-12.633l-.046-16.465c-.009-2.437-.04-4.8 3.485-4.713 3.272.081 3.096 2.346 3.097 4.546.004 7.151.285 14.319-.111 21.448-.278 4.992 1.642 6.616 6.306 5.999 1.47-.195 2.99-.032 4.486-.006 2.022.035 3.64.458 3.475 3.078-.143 2.281-1.5 2.711-3.391 2.56-.331-.027-.666.002-.997-.024-5.103-.397-11.48 2.102-14.998-1.083-3.652-3.307-.758-9.786-1.305-15.34zm-91.731-386.474c-1.597 3.977-4.129 6.166-8.163 5.601-4.253-.596-6.224-3.788-6.79-7.584-.988-6.626.901-12.469 5.962-17.068 1.06-.963 2.151-2.189 4.275-1.143-2.083 3.134-5.856 5.504-4.813 10.311 2.826.956 6.507.55 8.512 3.787 1.113 1.796 1.458 3.663 1.016 6.095z"/></svg>