<svg version="1.1" id="Layer_1" xmlns="http://www.w3.org/2000/svg" xmlns:xlink="http://www.w3.org/1999/xlink" x="0px" y="0px"
	 width="100%" viewBox="0 0 1024 1024" enable-background="new 0 0 1024 1024" xml:space="preserve">
<path fill="#000000" opacity="1.000000" stroke="none" 
	d="
M327.564178,655.395935 
	C336.663239,653.523071 338.000092,651.042053 333.307983,645.051941 
	C332.937042,644.578369 332.755157,643.956848 332.381042,643.190125 
	C335.947418,641.437988 338.180359,644.044250 339.935638,645.612915 
	C343.778076,649.046814 345.463837,646.878113 346.951355,643.643066 
	C347.972168,641.423035 348.617096,639.030090 349.811096,635.629028 
	C347.004547,638.321289 345.839905,640.997131 343.034058,642.604675 
	C342.384186,639.674988 345.825317,638.563965 345.001038,635.386841 
	C336.667664,639.366028 330.596710,633.891174 324.007996,629.775513 
	C329.846741,629.297729 335.626495,627.308350 341.502106,630.004944 
	C346.992920,632.524902 349.774323,631.037659 350.855957,624.983276 
	C351.405304,621.908264 352.364136,618.808899 350.961426,614.629456 
	C344.598480,623.070007 336.325012,618.625366 328.456665,618.554565 
	C334.510498,615.867126 337.619568,608.253662 345.590302,609.080383 
	C351.765289,609.720886 352.726471,608.914307 352.798187,602.444275 
	C352.949615,588.782104 352.919800,575.117981 353.044403,561.455383 
	C353.138550,551.132812 353.153046,540.802612 353.598938,530.492859 
	C353.853851,524.598755 349.847565,522.155029 345.921478,518.880432 
	C344.308655,523.175293 344.229370,526.406616 347.177612,530.138733 
	C353.040894,537.560974 351.774658,544.541992 343.391449,552.705688 
	C345.681274,545.751282 337.062775,542.523438 339.172668,534.626465 
	C329.842072,547.549561 329.981934,560.525757 332.762238,573.863892 
	C333.085571,575.414978 333.578094,576.838806 335.452515,577.726196 
	C344.986938,582.240173 347.406036,588.180969 344.366547,598.858582 
	C335.925293,595.634644 329.295532,591.107727 331.077087,580.198547 
	C329.946289,585.797485 330.642822,591.375793 328.776764,596.492310 
	C326.914062,601.599731 322.708954,605.450623 320.813324,611.291016 
	C316.440948,607.755127 318.047302,602.827637 316.441925,599.075439 
	C314.540802,594.631958 317.141266,591.023376 319.495239,587.566650 
	C321.852417,584.105164 326.273499,582.215027 327.494568,577.292786 
	C321.516296,582.184875 317.722900,582.407654 310.877106,578.432739 
	C313.945862,574.056274 318.263763,572.480591 323.343475,572.684021 
	C326.835114,572.823792 328.406311,571.717957 328.426941,567.827209 
	C328.464478,560.763489 329.126526,553.703064 329.601227,545.351746 
	C323.892700,552.071411 318.015503,554.948853 310.540344,550.633179 
	C310.705292,545.670593 315.738373,540.054749 321.465210,540.940979 
	C331.307251,542.464172 335.391541,537.430725 337.939392,529.343445 
	C338.530884,527.465942 339.508698,525.710144 340.715027,522.978333 
	C327.679626,520.143555 326.068390,508.376526 321.335358,498.990356 
	C320.756073,497.841553 320.332825,496.431458 322.675049,494.916260 
	C326.068817,503.003876 336.002014,502.017517 341.372192,509.157806 
	C342.124115,503.703552 340.605377,499.153687 339.301758,495.054443 
	C337.329376,488.852234 335.941742,482.116516 331.007446,477.178009 
	C327.173798,473.341034 326.292023,468.220215 325.301117,462.851959 
	C321.074127,464.375092 317.598480,466.496216 314.208130,468.886749 
	C312.039215,461.948181 314.483521,456.089447 321.394836,453.742371 
	C326.721527,451.933350 328.463837,448.887970 327.768433,443.689575 
	C327.315918,440.306702 328.140381,437.069153 329.388641,433.937225 
	C332.899811,425.127655 336.119598,416.181519 341.171295,408.078522 
	C342.729004,405.579895 342.956390,402.731903 343.514252,399.975372 
	C343.872437,398.205658 344.000031,396.396515 345.606384,394.623718 
	C347.935272,399.443054 342.379364,405.000244 347.498932,409.273682 
	C350.824768,406.770325 352.474823,403.568573 351.558716,399.720947 
	C350.424835,394.958862 351.565826,389.390778 346.507629,385.833984 
	C345.071472,384.824188 346.698181,382.052338 345.521667,380.177032 
	C342.776459,375.801239 338.758545,373.556366 333.907532,372.184204 
	C331.590790,371.528870 327.069824,372.650787 327.432312,369.473633 
	C327.834717,365.946564 332.188416,367.754059 334.703064,367.749634 
	C400.015564,367.634888 465.328247,367.653046 530.640930,367.658600 
	C531.943054,367.658722 533.245178,367.781677 534.837036,367.861938 
	C535.861572,373.627289 535.210144,379.263062 535.311096,384.855682 
	C535.425415,391.186035 535.363220,397.520569 535.295654,403.852386 
	C535.281067,405.226044 535.754150,407.151947 533.427795,407.222137 
	C531.509827,407.280029 531.553711,405.541962 531.338501,404.339844 
	C529.938049,396.516663 524.475891,391.923645 518.197144,388.227142 
	C504.152161,379.958466 488.509460,376.633820 472.632080,374.368500 
	C443.317932,370.186096 413.792542,371.603363 384.331726,371.315216 
	C380.756805,371.280243 379.250702,372.426514 379.285645,376.200348 
	C379.427673,391.530487 378.378723,406.947083 379.708466,422.162292 
	C380.499390,431.212341 378.795746,439.928131 379.175171,448.826019 
	C379.361633,453.198517 380.604248,455.411865 384.953400,455.630615 
	C387.874512,455.777527 390.307861,457.216095 392.903473,458.363342 
	C399.386536,461.229034 399.299805,467.465454 401.034180,472.920410 
	C389.961029,473.149933 384.171021,470.551849 379.751221,462.930664 
	C379.751221,473.301239 379.751221,482.937225 379.751221,492.612671 
	C380.330780,493.128357 380.956726,492.907959 381.491974,492.492432 
	C397.301178,480.219360 414.806396,479.661499 433.178375,484.961639 
	C443.447540,487.924133 452.933380,492.941742 463.052795,496.294067 
	C469.736145,498.508148 476.532990,499.903015 483.635742,499.716339 
	C493.224640,499.464233 499.990387,494.879211 503.437714,485.942261 
	C503.931549,484.662079 504.095062,483.187744 505.968903,483.642273 
	C507.828094,484.093292 507.425415,485.717010 507.297394,486.940857 
	C506.083710,498.542389 499.809814,506.744629 489.606293,511.810883 
	C477.133484,518.003906 464.130737,517.240417 451.088226,513.706787 
	C440.168610,510.748322 430.632111,504.916656 421.061218,499.168152 
	C414.607727,495.292084 408.076660,491.583893 400.358429,490.955505 
	C393.328735,490.383240 387.374603,492.683777 382.522003,497.585968 
	C383.015381,500.729736 386.172028,502.345795 385.898071,505.487152 
	C379.372955,504.324280 379.231049,504.327545 379.389465,511.182526 
	C379.515289,516.625549 378.794952,522.059143 380.449036,527.541138 
	C381.140503,529.832764 379.230896,532.762390 379.271881,535.640198 
	C379.430847,546.803223 379.967041,558.017334 379.134949,569.120361 
	C378.446960,578.300781 381.423370,585.906738 385.812256,593.404297 
	C386.128113,593.943909 386.278900,594.580078 386.538544,595.254822 
	C385.956329,595.596313 385.571442,596.000793 385.155945,596.035217 
	C383.250244,596.192871 380.468140,593.723022 379.673920,597.019104 
	C378.985291,599.876831 378.141052,603.375183 381.905945,605.412598 
	C383.042023,606.027344 384.083344,606.987244 384.892334,608.007690 
	C388.853424,613.004456 393.022797,616.117676 400.214142,613.877563 
	C405.340698,612.280579 415.726746,619.329407 418.032654,624.626587 
	C418.894592,626.606628 418.286591,628.104980 416.033478,628.031067 
	C412.816376,627.925415 409.788239,628.860291 406.665222,629.234924 
	C400.046631,630.029053 396.710907,625.870117 393.932220,620.797302 
	C393.082031,627.624573 394.457489,630.306580 400.121521,633.573975 
	C404.234406,635.946472 409.005127,637.491821 410.844330,642.715454 
	C411.693268,645.126465 415.134613,644.096252 417.470825,646.768860 
	C412.392700,649.591980 407.378357,649.438782 402.489777,648.972351 
	C398.487244,648.590515 395.804565,645.993774 394.897430,642.025330 
	C393.379669,635.385437 391.880371,628.732361 390.695465,622.027954 
	C389.539307,615.486206 385.133240,611.670837 380.466400,607.454346 
	C379.060059,610.051086 380.893982,610.890320 381.444916,612.144226 
	C383.965485,617.881104 385.558990,623.915283 384.775879,630.104065 
	C384.059448,635.766113 383.291626,641.190674 387.552612,646.568909 
	C392.907440,644.096558 396.831421,646.645325 399.096191,652.571655 
	C399.817932,654.460327 401.467957,654.687988 403.220184,654.683899 
	C409.552582,654.669189 415.885712,654.620178 422.217163,654.697815 
	C424.487854,654.725647 425.748840,653.780884 426.967468,651.849304 
	C430.077393,646.919800 432.411163,641.276672 438.663544,637.821777 
	C436.691406,643.923401 439.007263,648.120422 442.668732,652.001770 
	C444.009277,653.422852 445.394714,653.926697 447.084534,653.534790 
	C451.782410,652.445190 456.648987,652.985535 460.963623,649.154663 
	C463.880341,646.565002 469.616974,647.317688 469.786285,641.590881 
	C472.087280,642.052002 471.972015,643.416504 472.500214,644.399536 
	C473.437500,646.143982 472.298279,649.467651 475.379608,649.494690 
	C478.631744,649.523315 482.096771,649.217529 484.529724,646.432739 
	C486.704193,643.943848 488.496979,639.777283 492.080414,645.116699 
	C492.563721,645.836792 493.612244,645.402588 494.415649,645.144958 
	C505.122253,641.711670 515.362366,637.507629 523.448914,629.214478 
	C527.819214,624.732483 530.405212,619.553467 531.260437,613.397888 
	C531.446228,612.060547 531.082397,609.961304 533.314209,610.042725 
	C535.841064,610.134888 535.298950,612.343933 535.304565,613.871521 
	C535.354248,627.369629 535.193604,640.870178 535.405212,654.365112 
	C535.476807,658.926880 532.876953,659.007935 529.642395,659.002502 
	C514.644470,658.977173 499.646179,659.050110 484.648560,658.978882 
	C481.062073,658.961853 477.919556,659.573669 474.769623,661.611816 
	C468.154297,665.892090 460.656830,665.955750 451.794006,664.588074 
	C456.800659,670.976562 458.719177,677.170593 455.341705,683.953064 
	C453.438507,687.774902 450.022675,689.943787 446.179535,692.029358 
	C450.224548,684.508179 444.860992,676.477234 448.286835,668.928528 
	C449.729156,665.750366 446.301544,664.990417 443.987000,665.488647 
	C439.941650,666.359497 435.794189,667.355347 432.099548,669.145142 
	C420.426605,674.799927 409.395325,672.994812 398.844818,666.634033 
	C394.524811,664.029541 389.934570,662.176025 385.444336,660.020630 
	C382.754486,658.729492 381.256165,659.173340 380.076660,662.098877 
	C378.314758,666.468689 376.133606,670.679810 371.477936,672.898376 
	C373.027740,668.416992 377.309418,665.375122 377.832642,659.909912 
	C374.915863,663.083618 373.350830,659.083862 370.996643,659.089172 
	C365.499237,659.101562 360.001740,659.091248 354.504303,659.087463 
	C352.582764,659.086121 351.538483,660.013550 350.909912,661.869141 
	C349.595764,665.748657 350.885620,668.169312 355.416412,669.709229 
	C360.105560,671.302979 364.807892,672.858032 369.949768,674.579041 
	C365.340942,679.250122 364.890045,687.115967 356.975464,688.233765 
	C352.439270,688.874390 347.906128,690.235352 342.081146,687.205444 
	C348.173462,684.716492 350.682892,679.752563 354.411835,676.331909 
	C352.608917,675.990845 350.667206,677.156860 348.594391,677.549011 
	C345.663086,678.103699 343.174622,679.940735 339.635590,678.427063 
	C337.574951,677.545654 334.658783,679.638000 332.953339,681.952820 
	C331.043854,684.544617 328.658051,686.046204 325.451782,685.084778 
	C324.086639,683.170166 325.722961,681.715881 325.696136,679.938904 
	C322.215271,679.977478 321.326630,683.703796 317.321625,685.455750 
	C318.765900,678.787354 320.451996,672.950073 323.752319,668.312073 
	C327.941589,662.424988 334.663849,664.124939 341.337524,665.753662 
	C339.518921,661.089233 337.288788,658.508972 332.403442,658.814636 
	C330.395355,658.940308 326.840393,660.155701 327.564178,655.395935 
M334.816925,427.261536 
	C328.286713,437.651123 330.978088,449.375458 330.317383,460.730499 
	C335.517151,460.606781 340.887878,461.748169 344.021271,466.546265 
	C346.346222,470.106445 347.178925,474.639740 351.948547,476.623688 
	C349.029449,479.034912 346.051727,479.576233 344.228302,481.910522 
	C345.921875,485.385651 349.568848,485.916534 353.099762,488.413483 
	C353.230316,476.319366 354.066040,465.107300 353.245483,453.879730 
	C353.047119,451.165436 354.069641,447.834564 351.590515,445.835785 
	C348.048737,442.980286 346.545410,438.694153 347.283813,435.189392 
	C349.095612,426.589966 342.069733,420.600769 342.687225,411.594299 
	C338.694824,416.922760 337.529846,422.046478 334.816925,427.261536 
M416.803558,669.504456 
	C420.246552,669.473755 423.624023,669.025940 427.320831,668.071655 
	C426.088776,664.682495 427.654266,659.669373 422.706848,659.200134 
	C415.751251,658.540466 408.686340,659.033325 401.601685,659.033325 
	C403.416656,666.076172 408.411682,668.275757 414.565582,668.916992 
	C415.051971,668.967590 415.522247,669.173035 416.803558,669.504456 
M347.217194,507.543945 
	C346.658813,506.792389 346.394806,505.601257 344.476776,506.227722 
	C344.768768,510.822754 346.417938,514.689514 350.613525,518.664307 
	C351.033020,511.816040 351.598480,506.151398 352.806885,500.504120 
	C353.684814,496.401306 354.916718,490.887695 348.305634,489.197113 
	C351.611328,495.670074 352.138458,501.257568 350.134735,507.673645 
	C349.512909,509.664886 348.868225,510.692657 347.217194,507.543945 
M342.214142,674.540588 
	C346.588074,672.469910 351.399231,672.854980 356.074127,672.185730 
	C351.741455,671.013489 347.270844,669.130615 343.144104,669.707581 
	C338.989655,670.288391 337.306396,675.944824 333.115631,677.721497 
	C335.888214,676.723145 338.660828,675.724792 342.214142,674.540588 
M444.093384,658.673645 
	C441.641724,659.150757 440.695465,660.915894 439.995178,663.130188 
	C450.689026,663.243347 451.778961,662.986084 454.853241,659.358704 
	C451.308350,659.115417 448.075195,658.893494 444.093384,658.673645 
M468.591980,661.659119 
	C469.459259,660.971924 470.869293,661.013977 471.378235,659.417053 
	C466.739624,658.768860 463.383148,662.491211 459.116302,662.661438 
	C462.106567,662.801514 465.074463,663.024597 468.591980,661.659119 
M349.565247,418.896515 
	C350.322571,419.496185 351.025543,420.247375 352.374512,419.762817 
	C353.309601,416.142181 352.031097,414.782654 347.834839,415.612518 
	C348.383514,416.737213 348.790192,417.570862 349.565247,418.896515 
z"/>
<path fill="#000000" opacity="1.000000" stroke="none" 
	d="
M608.339722,438.004456 
	C608.326355,504.999786 608.641663,571.498596 608.133362,637.991089 
	C607.937134,663.660645 598.908203,686.311523 579.098511,703.595459 
	C567.217896,713.961243 553.165344,718.164429 537.413513,716.290771 
	C535.923645,716.113525 534.175232,715.988708 534.053894,714.031311 
	C533.921143,711.890503 535.694824,711.767456 537.203918,711.793030 
	C557.777039,712.141113 567.912109,699.112549 574.797546,682.211121 
	C581.128540,666.670410 582.448181,650.151123 582.509277,633.666870 
	C582.760071,566.004883 582.817932,498.340424 582.471497,430.679321 
	C582.398560,416.430939 582.222046,402.040009 578.853027,387.972107 
	C576.343872,377.494629 571.312439,369.881195 559.492004,368.987244 
	C558.081848,368.880585 556.127075,368.812103 556.090820,366.813385 
	C556.044434,364.258698 558.296509,364.716125 559.805725,364.712341 
	C583.470825,364.653015 607.136047,364.647125 630.801270,364.674072 
	C632.364807,364.675842 634.609619,364.297424 634.655396,366.688629 
	C634.699280,368.980133 632.440063,368.907562 630.890564,369.008698 
	C620.205200,369.706116 615.124084,376.456879 612.405945,385.856689 
	C608.511353,399.325165 609.410034,413.260162 608.423096,427.008728 
	C608.173096,430.491669 608.355713,434.005707 608.339722,438.004456 
z"/>
<path fill="#000000" opacity="1.000000" stroke="none" 
	d="
M260.026184,783.109375 
	C251.215424,789.618103 241.483612,788.400269 231.869766,787.774902 
	C229.294479,787.607361 228.806961,785.740662 228.810669,783.498962 
	C228.832703,770.188354 228.853455,756.877258 228.745270,743.567383 
	C228.721466,740.638611 229.854370,739.166565 232.741440,739.129028 
	C237.894531,739.062073 243.091064,738.606567 248.194016,739.097473 
	C264.590729,740.674805 267.482086,750.269531 267.852814,761.904480 
	C268.097809,769.592712 266.406372,777.177979 260.026184,783.109375 
M260.666321,765.248901 
	C260.669037,749.013245 254.993790,743.636047 239.728928,745.275208 
	C237.620468,745.501648 236.203568,746.068054 236.147568,748.440735 
	C235.920044,758.081543 235.612396,767.721252 235.497223,777.363342 
	C235.473602,779.340332 236.050644,781.159851 238.668976,781.724548 
	C251.362747,784.462341 258.885651,779.188721 260.666321,765.248901 
z"/>
<path fill="#000000" opacity="1.000000" stroke="none" 
	d="
M495.293396,767.058167 
	C495.214661,762.523621 495.080109,758.365234 495.014252,754.205872 
	C494.977478,751.883667 495.294037,749.762878 498.414368,749.837646 
	C501.370117,749.908447 501.307129,752.036133 501.307495,754.077393 
	C501.309204,763.407593 501.340973,772.738403 501.225494,782.067322 
	C501.203094,783.878662 502.279480,786.514282 499.567780,787.200745 
	C496.744141,787.915527 494.122101,787.497925 492.208496,784.546875 
	C488.132324,778.260864 483.767426,772.161499 479.493317,766.004761 
	C478.575531,764.682739 477.541260,763.441467 476.119690,761.588196 
	C475.291321,769.058289 475.122284,775.766663 475.831482,782.524719 
	C476.037415,784.487122 476.705109,787.137390 473.249542,787.381653 
	C469.747192,787.629150 469.675842,785.285645 469.681335,782.797729 
	C469.701904,773.467529 469.661591,764.137085 469.728821,754.807312 
	C469.742279,752.937927 469.095978,750.543823 471.923950,749.940063 
	C474.377563,749.416260 476.501892,749.895142 478.045013,752.169495 
	C481.972046,757.957581 485.986725,763.686218 489.939240,769.457214 
	C491.057098,771.089355 492.044128,772.819275 494.004791,774.096558 
	C495.796600,771.996887 495.156555,769.633301 495.293396,767.058167 
z"/>
<path fill="#000000" opacity="1.000000" stroke="none" 
	d="
M635.881592,780.860596 
	C635.869873,771.884216 635.818481,763.388062 635.861450,754.892334 
	C635.870972,753.001770 635.276428,750.588013 637.995911,749.946350 
	C640.595154,749.333069 642.826904,749.877991 644.506714,752.357178 
	C649.457031,759.663452 654.549683,766.873352 659.596313,774.114197 
	C659.963379,774.640808 660.408630,775.113037 661.664551,776.641235 
	C661.664551,769.290405 661.657532,763.061584 661.669556,756.832825 
	C661.672485,755.334778 661.682800,753.832886 661.789368,752.339844 
	C661.924377,750.449524 663.170898,749.869385 664.885132,749.869873 
	C666.844849,749.870361 667.481873,751.000061 667.481384,752.750305 
	C667.478027,764.055847 667.479675,775.361389 667.479675,786.566772 
	C662.691101,788.513916 659.948914,787.021484 657.530151,783.184998 
	C653.033020,776.052063 648.107971,769.188843 642.191101,762.512878 
	C642.191101,769.572876 642.197693,776.632874 642.186951,783.692871 
	C642.183838,785.751221 641.583740,787.290344 639.096680,787.279663 
	C637.370422,787.272217 636.150024,786.717102 635.987549,784.834106 
	C635.887573,783.675110 635.908997,782.505676 635.881592,780.860596 
z"/>
<path fill="#000000" opacity="1.000000" stroke="none" 
	d="
M539.835327,783.962769 
	C532.400513,789.056396 524.448608,788.526733 516.440613,787.676086 
	C514.386169,787.457825 513.656067,786.340149 513.665466,784.337952 
	C513.713989,774.028687 513.729065,763.718872 513.668396,753.409729 
	C513.651306,750.511047 515.147766,749.690491 517.728088,749.726929 
	C521.884094,749.785583 526.044678,749.620056 530.198242,749.733459 
	C538.588806,749.962524 544.032104,754.283081 545.670776,762.476868 
	C547.245056,770.348389 546.022156,777.699829 539.835327,783.962769 
M520.181213,760.825745 
	C520.171692,766.292725 520.123108,771.760132 520.177002,777.226501 
	C520.192749,778.817444 519.919556,780.573242 521.787048,781.585388 
	C525.938599,783.835632 535.071228,781.532898 537.451782,777.359253 
	C540.650940,771.750305 540.667358,765.766541 537.641235,760.244202 
	C534.993530,755.412476 529.910706,755.276917 524.947876,755.267761 
	C521.584045,755.261536 519.948975,756.490723 520.181213,760.825745 
z"/>
<path fill="#000000" opacity="1.000000" stroke="none" 
	d="
M373.319519,774.903381 
	C370.227783,784.767578 362.631653,789.551331 352.989929,788.088684 
	C344.167023,786.750305 338.973511,780.390930 338.696899,770.516907 
	C338.487549,763.045349 339.829437,756.154663 346.876770,751.952393 
	C359.325165,744.529297 373.369690,752.064697 374.135864,766.592773 
	C374.273560,769.203979 373.645111,771.855652 373.319519,774.903381 
M366.323578,775.622009 
	C367.688263,771.392761 367.728119,767.143250 366.572266,762.859497 
	C365.273285,758.045166 361.819916,755.382568 356.712585,755.307678 
	C351.395599,755.229736 347.908539,757.539673 346.399475,762.240845 
	C345.261719,765.785400 345.008820,769.331055 345.933746,773.040466 
	C346.995148,777.297180 348.328644,781.036377 353.387512,781.866211 
	C359.460022,782.862427 362.755798,781.463989 366.323578,775.622009 
z"/>
<path fill="#000000" opacity="1.000000" stroke="none" 
	d="
M406.097168,778.932983 
	C407.740570,781.422424 409.998260,783.068298 410.759125,785.715393 
	C406.905914,789.105347 405.105499,789.001343 402.484070,785.146301 
	C400.523041,782.262390 398.634308,779.327393 396.782166,776.372070 
	C395.370148,774.119080 393.256256,773.914673 391.101105,774.591125 
	C388.983337,775.255798 389.544098,777.159302 389.670410,778.822449 
	C389.808350,780.638977 389.719604,782.471619 389.815521,784.292786 
	C389.920807,786.292053 389.297791,787.495239 387.041077,787.416870 
	C385.102661,787.349609 383.183380,787.235779 383.164917,784.679443 
	C383.088318,774.061890 383.062500,763.443787 383.069122,752.825928 
	C383.070587,750.477295 384.614868,749.735046 386.721588,749.750488 
	C390.542236,749.778442 394.380188,749.569580 398.179260,749.865784 
	C402.529694,750.205139 406.272827,751.920593 408.037476,756.320312 
	C409.883423,760.922791 409.268829,765.683838 405.758728,768.773193 
	C401.363831,772.641113 403.032776,775.403503 406.097168,778.932983 
M399.893066,766.370178 
	C401.321533,764.817322 401.803925,762.967163 401.749359,760.889771 
	C401.661591,757.548401 399.287659,756.292969 396.654083,755.675781 
	C394.495575,755.169983 391.245911,754.218384 390.325165,756.588074 
	C388.978546,760.053955 388.757874,764.619629 390.864014,767.525330 
	C392.804077,770.202026 396.589203,768.922180 399.893066,766.370178 
z"/>
<path fill="#000000" opacity="1.000000" stroke="none" 
	d="
M567.464600,777.565674 
	C567.360779,769.636414 567.286987,762.150391 567.029602,754.670654 
	C566.906555,751.096741 568.187195,749.420898 571.950867,749.686829 
	C575.098145,749.909119 578.280396,749.608398 581.433350,749.785400 
	C585.985046,750.040955 589.993530,751.515686 591.937256,756.085815 
	C594.052856,761.059998 593.085693,765.843811 589.284363,769.374878 
	C586.158569,772.278320 586.522217,774.358582 588.822449,777.323608 
	C590.932434,780.043396 593.485596,782.513977 594.886536,786.107666 
	C591.521790,788.888794 588.776123,788.885559 586.372864,784.947083 
	C584.640015,782.107300 582.691345,779.399414 580.946228,776.566711 
	C579.576660,774.343628 577.549866,773.869812 575.331482,774.521912 
	C572.799500,775.266296 573.858459,777.438477 573.881836,779.168518 
	C573.906494,780.997131 573.909302,782.828735 573.833191,784.655334 
	C573.743286,786.812500 572.365540,787.368958 570.439636,787.347412 
	C568.465698,787.325378 567.185303,786.589905 567.184998,784.485413 
	C567.184631,782.327393 567.334839,780.169434 567.464600,777.565674 
M580.668396,755.599792 
	C573.926392,755.053223 573.820740,755.174683 573.964844,763.310059 
	C574.058044,768.565308 576.867920,770.277222 581.673584,767.967712 
	C584.284058,766.713318 585.689758,764.683472 585.810364,761.696594 
	C585.940552,758.471985 584.165894,756.839294 580.668396,755.599792 
z"/>
<path fill="#000000" opacity="1.000000" stroke="none" 
	d="
M726.836792,405.564148 
	C727.147339,414.859741 720.366760,421.938568 710.325195,423.170959 
	C703.051758,424.063629 696.496399,421.953705 690.410583,418.093903 
	C687.048462,415.961578 687.478210,412.891510 688.214172,409.680511 
	C690.824646,409.035400 691.291077,411.373291 692.403442,412.569946 
	C697.395325,417.940216 703.079895,421.548828 710.815308,420.702454 
	C716.565125,420.073364 721.675781,416.092499 722.583496,411.385742 
	C723.419128,407.052673 721.025879,402.893280 715.225403,400.139343 
	C708.621704,397.004028 701.660706,394.622559 695.048706,391.502930 
	C690.349670,389.285797 687.678772,385.207367 687.781555,379.884033 
	C687.883118,374.622406 690.608215,370.752777 695.206360,368.271362 
	C697.554688,367.004089 700.046631,365.943817 702.734070,365.745544 
	C708.225159,365.340363 713.705750,365.344269 719.110718,366.703705 
	C724.335144,368.017792 725.087341,369.563354 723.125549,375.395264 
	C721.069153,375.377380 720.667725,373.398041 719.599731,372.290222 
	C713.505310,365.968536 702.429138,365.616699 696.077698,371.628876 
	C690.877380,376.551392 691.382935,382.416840 697.481445,386.183624 
	C702.773682,389.452393 708.918884,390.689453 714.599060,393.042694 
	C720.300232,395.404694 725.397522,398.419220 726.836792,405.564148 
z"/>
<path fill="#000000" opacity="1.000000" stroke="none" 
	d="
M427.791077,784.305786 
	C431.674774,774.205322 435.464142,764.433411 439.246887,754.658813 
	C440.292297,751.957458 441.267456,749.535461 445.066132,749.663513 
	C448.797119,749.789429 449.182983,752.471191 450.051056,754.904419 
	C453.237152,763.834778 456.360413,772.787476 459.519287,781.727600 
	C460.070648,783.288025 460.776031,784.809937 460.469513,786.672668 
	C456.743103,788.282837 454.361206,787.310425 453.668365,783.172119 
	C453.025116,779.330078 450.824707,777.812561 447.019531,778.234802 
	C445.539215,778.399048 443.999420,778.439026 442.531342,778.226990 
	C437.713226,777.530945 434.921600,779.422852 434.113464,784.288208 
	C433.730896,786.591431 432.334106,787.626709 429.871979,787.478699 
	C427.820374,787.355469 427.177765,786.534973 427.791077,784.305786 
M448.231232,772.479858 
	C450.051849,767.039856 446.008118,763.269592 444.633514,757.267883 
	C442.257172,763.062317 440.470917,767.417847 438.628204,771.911011 
	C441.936981,773.182556 444.747467,772.524841 448.231232,772.479858 
z"/>
<path fill="#000000" opacity="1.000000" stroke="none" 
	d="
M715.723389,780.694214 
	C714.258301,784.382996 714.160522,789.290894 708.292542,786.640442 
	C707.559265,784.596741 708.690002,783.002380 709.329102,781.340942 
	C712.906555,772.042358 716.571167,762.776978 720.095398,753.458435 
	C721.023254,751.005249 722.293152,749.624268 725.150513,749.675232 
	C727.775818,749.721985 729.022583,750.933472 729.822632,753.238403 
	C733.667480,764.314697 737.584045,775.366089 741.550537,786.640869 
	C737.376892,788.073608 734.850037,787.656372 734.087036,783.367432 
	C733.389160,779.444397 731.011169,777.565979 727.020874,778.291565 
	C723.312561,778.966003 718.987671,776.339233 715.723389,780.694214 
M723.485962,760.489075 
	C722.516907,764.405212 719.756287,767.789490 719.739624,772.237671 
	C723.087952,772.813416 726.119019,773.086670 729.388916,771.983887 
	C729.185608,767.269348 727.074341,763.270081 725.484497,759.196411 
	C724.765015,757.353149 724.271851,759.418213 723.485962,760.489075 
z"/>
<path fill="#000000" opacity="1.000000" stroke="none" 
	d="
M626.903809,754.743286 
	C623.033569,755.140564 619.386414,755.473267 615.767517,755.278809 
	C611.673950,755.059021 610.264099,756.596252 610.199646,760.732178 
	C610.135010,764.879333 611.789917,766.058350 615.517578,765.706177 
	C617.331116,765.534790 619.171326,765.661438 620.998291,765.612183 
	C622.877014,765.561523 624.302063,765.933777 624.213257,768.294434 
	C624.134094,770.398438 623.000549,771.256531 621.040039,771.269592 
	C619.378479,771.280640 617.702576,771.389587 616.057739,771.218323 
	C611.801331,770.775146 610.150879,772.407288 610.177307,776.852600 
	C610.201355,780.885925 611.670349,782.226746 615.464050,781.937927 
	C618.109192,781.736572 620.784607,781.958679 623.436218,781.809570 
	C627.333374,781.590271 628.065247,783.437683 626.742676,787.302429 
	C620.158325,787.302429 613.414062,787.333069 606.670227,787.286621 
	C604.164795,787.269348 603.820618,785.442017 603.817200,783.477600 
	C603.799744,773.507141 603.821045,763.536499 603.767944,753.566223 
	C603.753174,750.795288 605.077515,749.707764 607.740601,749.734680 
	C613.057800,749.788391 618.376770,749.806946 623.693298,749.724670 
	C627.206421,749.670288 628.117859,751.319885 626.903809,754.743286 
z"/>
<path fill="#000000" opacity="1.000000" stroke="none" 
	d="
M291.695312,787.407593 
	C288.235107,787.400269 285.209625,787.139465 282.241852,787.442688 
	C277.347107,787.942810 275.385651,786.370789 275.631409,781.105164 
	C276.042664,772.293091 275.839478,763.444214 275.651276,754.616028 
	C275.572296,750.910583 276.986115,749.541260 280.626038,749.681763 
	C285.451355,749.868042 290.290741,749.653503 295.121704,749.742065 
	C299.511383,749.822632 299.572174,749.987976 298.665955,755.366943 
	C294.640289,755.366943 290.518219,755.467346 286.403229,755.339600 
	C282.009644,755.203186 282.386932,758.190430 282.254822,761.094604 
	C282.117737,764.109680 282.916870,765.944580 286.391022,765.688904 
	C288.712616,765.518005 291.053925,765.611084 293.386475,765.595703 
	C295.154358,765.584106 296.256439,766.261963 296.180328,768.238159 
	C296.112915,769.988647 295.357330,771.116577 293.520538,771.202942 
	C291.858246,771.281067 290.190460,771.242432 288.525085,771.253418 
	C282.496674,771.293213 282.028137,771.945923 282.199768,777.872070 
	C282.289642,780.974487 283.649994,781.998047 286.501648,781.888000 
	C289.164551,781.785278 291.835083,781.757751 294.498535,781.832031 
	C296.553955,781.889343 299.165222,781.268188 299.266968,784.648987 
	C299.375458,788.252808 296.653412,787.274902 294.655029,787.406189 
	C293.825562,787.460693 292.989227,787.410278 291.695312,787.407593 
z"/>
<path fill="#000000" opacity="1.000000" stroke="none" 
	d="
M792.463501,767.406738 
	C798.488403,770.969055 800.392395,774.793335 798.837952,779.736389 
	C797.145752,785.117493 791.738647,788.466187 784.988770,788.152222 
	C783.178955,788.067993 781.366760,787.658508 779.593445,787.238708 
	C774.610779,786.059082 773.916565,784.580750 775.820923,779.376953 
	C777.895020,778.640442 779.107239,780.497375 780.728149,781.111511 
	C783.530762,782.173096 786.264038,783.523560 789.307190,781.838928 
	C793.381714,779.583313 793.712708,776.341248 789.840881,773.796082 
	C787.218201,772.071960 784.234436,770.906372 781.465820,769.392822 
	C777.493591,767.221436 775.179626,764.086548 775.695435,759.281128 
	C776.184082,754.728394 779.051270,752.232361 782.941345,750.582275 
	C786.297974,749.158325 789.839355,749.451416 793.270020,749.983398 
	C798.563049,750.804321 799.140869,752.356018 796.427979,757.411804 
	C793.809387,757.677368 792.074585,755.174133 789.480164,755.143677 
	C786.459717,755.108337 783.634216,755.447937 782.594727,758.755493 
	C781.598694,761.924988 784.059143,763.163025 786.334473,764.328979 
	C788.258179,765.314697 790.202209,766.260864 792.463501,767.406738 
z"/>
<path fill="#000000" opacity="1.000000" stroke="none" 
	d="
M329.060699,750.316345 
	C334.051117,751.471802 334.346558,754.112427 332.135498,758.114319 
	C325.739136,755.555237 319.028442,752.550720 313.731537,759.605530 
	C310.338562,764.124451 310.631165,773.644287 314.093414,778.091919 
	C319.489960,785.024353 326.014069,781.350281 332.422974,779.307739 
	C334.112274,783.110107 333.174774,785.381348 329.428009,786.767395 
	C322.156342,789.457214 313.786499,788.307068 309.479553,783.348694 
	C303.231659,776.155884 303.353912,767.741699 306.424164,759.435120 
	C309.114716,752.155701 315.193176,749.404297 322.731628,749.690918 
	C324.715210,749.766235 326.692780,750.001282 329.060699,750.316345 
z"/>
<path fill="#000000" opacity="1.000000" stroke="none" 
	d="
M686.752686,783.630005 
	C686.739380,775.359497 686.655518,767.549622 686.772400,759.742737 
	C686.825867,756.170593 685.369202,754.843567 681.912231,755.612000 
	C681.103760,755.791687 680.280090,755.963074 679.456726,756.004333 
	C677.687927,756.092896 676.031738,755.878418 675.854614,753.594788 
	C675.692810,751.509399 676.343140,749.854553 678.734314,749.832703 
	C686.209045,749.764465 693.684875,749.770874 701.159912,749.819092 
	C703.158203,749.831970 704.243835,750.925415 703.987488,753.022156 
	C703.752319,754.944702 702.757385,755.875793 700.682068,755.924377 
	C693.285461,756.097473 693.283691,756.149902 693.276794,763.677856 
	C693.270691,770.323547 693.291870,776.969299 693.256165,783.614807 
	C693.247498,785.229431 693.533142,787.135010 691.068176,787.335449 
	C688.686523,787.529236 686.648193,787.229797 686.752686,783.630005 
z"/>
<path fill="#000000" opacity="1.000000" stroke="none" 
	d="
M749.772827,770.997192 
	C749.757019,765.176208 749.745056,759.854370 749.726440,754.532532 
	C749.717896,752.095337 749.686646,749.732300 753.211060,749.819092 
	C756.482727,749.899780 756.306885,752.165344 756.308228,754.365479 
	C756.312683,761.516724 756.593628,768.684265 756.197266,775.813721 
	C755.919678,780.806213 757.838867,782.429688 762.502991,781.812256 
	C763.973022,781.617676 765.492493,781.780212 766.988892,781.806213 
	C769.011230,781.841309 770.628723,782.264648 770.464111,784.883972 
	C770.320679,787.164856 768.964172,787.595398 767.073608,787.443848 
	C766.742676,787.417297 766.407410,787.445740 766.076355,787.419983 
	C760.973755,787.022705 754.596069,789.521973 751.078186,786.336792 
	C747.425903,783.030029 750.320312,776.551086 749.772827,770.997192 
z"/>
<path fill="#000000" opacity="1.000000" stroke="none" 
	d="
M658.042358,384.522644 
	C656.445374,388.499725 653.913757,390.688995 649.879395,390.123932 
	C645.626892,389.528320 643.655640,386.335876 643.089661,382.540131 
	C642.101685,375.914062 643.990540,370.070801 649.051392,365.472443 
	C650.111389,364.509308 651.202881,363.283691 653.326294,364.329346 
	C651.243347,367.463104 647.469910,369.833435 648.513550,374.640259 
	C651.339539,375.596405 655.020142,375.190491 657.026001,378.427185 
	C658.139038,380.223083 658.484192,382.090210 658.042358,384.522644 
z"/>
</svg>