<?xml version="1.0" standalone="no"?>
<!DOCTYPE svg PUBLIC "-//W3C//DTD SVG 20010904//EN"
 "http://www.w3.org/TR/2001/REC-SVG-20010904/DTD/svg10.dtd">
<svg version="1.0" xmlns="http://www.w3.org/2000/svg"
 width="517.000000pt" height="482.000000pt" viewBox="0 0 517.000000 482.000000"
 preserveAspectRatio="xMidYMid meet">

<g transform="translate(0.000000,482.000000) scale(0.100000,-0.100000)"
fill="#000000" stroke="none">
<path d="M2210 4575 c-380 -45 -693 -158 -1002 -361 -53 -35 -103 -70 -110
-76 -7 -7 -45 -39 -84 -71 -288 -232 -547 -611 -673 -983 -155 -458 -157 -969
-6 -1429 75 -229 225 -508 366 -682 370 -452 828 -720 1404 -819 130 -23 623
-26 760 -5 405 61 780 222 1090 469 247 197 486 498 614 776 228 491 278 1031
142 1539 -42 158 -77 251 -161 432 -81 174 -243 399 -405 560 -195 196 -327
293 -580 424 -222 116 -485 194 -759 227 -145 17 -450 16 -596 -1z m823 -888
c57 -34 94 -94 101 -162 3 -28 5 -51 5 -53 1 -1 17 5 37 13 104 43 293 75 450
75 106 0 125 -3 146 -20 46 -36 44 -113 -4 -143 -14 -9 -74 -19 -153 -26 -154
-13 -205 -21 -205 -31 0 -4 28 -24 63 -46 153 -94 269 -248 332 -439 22 -69
26 -97 26 -201 0 -105 -4 -133 -27 -204 -68 -204 -206 -364 -629 -725 -347
-297 -492 -448 -613 -639 -32 -50 -58 -83 -60 -74 -4 18 45 142 94 241 70 139
252 394 403 562 162 181 282 328 353 430 66 95 96 154 133 257 24 69 27 88 23
175 -4 113 -27 172 -97 261 -124 156 -306 217 -477 158 -123 -42 -204 -99
-349 -245 -55 -56 -105 -101 -112 -101 -16 0 -16 -3 3 54 56 165 203 379 319
466 49 37 54 47 28 57 -48 18 -102 112 -103 176 -1 168 169 268 313 184z
m-927 -350 c101 -29 203 -96 289 -189 97 -105 126 -179 55 -138 -185 106 -271
134 -405 135 -125 0 -190 -19 -292 -87 -130 -88 -216 -214 -243 -361 -18 -96
3 -210 59 -330 31 -66 119 -202 167 -257 76 -89 129 -145 250 -270 308 -317
352 -369 432 -507 78 -133 52 -126 -110 32 -134 131 -138 134 -313 280 -66 55
-133 112 -150 128 -16 15 -49 42 -72 60 -23 18 -105 95 -181 172 -194 196
-281 336 -311 500 -44 236 50 485 254 672 172 158 378 216 571 160z"/>
</g>
</svg>
