<?xml version="1.0" standalone="no"?>
<!DOCTYPE svg PUBLIC "-//W3C//DTD SVG 20010904//EN"
 "http://www.w3.org/TR/2001/REC-SVG-20010904/DTD/svg10.dtd">
<svg version="1.0" xmlns="http://www.w3.org/2000/svg"
 width="7715.000000pt" height="2560.000000pt" viewBox="0 0 7715.000000 2560.000000"
 preserveAspectRatio="xMidYMid meet">

<g transform="translate(0.000000,2560.000000) scale(0.100000,-0.100000)"
fill="#000000" stroke="none">
<path d="M77108 25568 c-1 -18 -2 -5778 -2 -12800 l-1 -12768 23 0 22 0 0
12800 c0 12793 0 12800 -20 12800 -16 0 -20 -7 -22 -32z"/>
<path d="M58735 24379 c-664 -32 -933 -52 -1205 -89 -41 -5 -147 -17 -235 -26
-88 -8 -180 -20 -205 -25 -25 -5 -83 -14 -130 -19 -47 -5 -128 -16 -180 -24
-110 -18 -137 -21 -285 -42 -60 -8 -130 -20 -155 -26 -25 -5 -70 -14 -100 -18
-30 -4 -91 -15 -135 -24 -44 -9 -93 -18 -110 -21 -98 -18 -196 -38 -239 -51
-26 -8 -61 -14 -76 -14 -16 0 -41 -5 -57 -11 -15 -6 -48 -15 -73 -19 -88 -17
-146 -30 -180 -39 -152 -43 -290 -78 -380 -97 -36 -7 -90 -21 -120 -29 -30 -9
-68 -20 -85 -25 -16 -4 -66 -18 -110 -30 -44 -12 -96 -26 -115 -30 -19 -5 -60
-16 -90 -25 -61 -18 -92 -27 -165 -49 -27 -8 -63 -19 -80 -25 -16 -5 -151 -50
-300 -99 -148 -50 -328 -111 -400 -136 -71 -26 -157 -56 -190 -68 -33 -11 -64
-24 -70 -28 -5 -4 -37 -17 -70 -28 -102 -35 -140 -50 -196 -75 -30 -14 -75
-32 -101 -41 -26 -9 -56 -20 -65 -25 -26 -13 -168 -75 -243 -106 -61 -26 -104
-45 -268 -121 -40 -19 -75 -34 -78 -34 -9 0 -615 -302 -749 -373 -228 -121
-280 -149 -290 -157 -5 -4 -44 -25 -85 -46 -41 -21 -115 -62 -163 -91 -48 -29
-90 -53 -93 -53 -2 0 -23 -12 -47 -27 -67 -44 -72 -47 -118 -72 -90 -49 -777
-507 -924 -616 -56 -42 -74 -55 -162 -117 -187 -134 -824 -656 -973 -798 -8
-8 -76 -70 -150 -137 -131 -118 -500 -486 -629 -628 -35 -38 -89 -97 -120
-130 -31 -33 -107 -118 -170 -189 -63 -72 -125 -142 -137 -156 -12 -14 -37
-44 -56 -66 -18 -23 -67 -84 -109 -135 -41 -52 -114 -146 -162 -209 -48 -63
-90 -119 -94 -125 -5 -5 -21 -30 -38 -55 -16 -25 -40 -56 -53 -70 -12 -14 -43
-54 -68 -90 -25 -36 -67 -96 -95 -135 -28 -38 -76 -108 -107 -154 -91 -134
-84 -124 -152 -238 -18 -32 -40 -64 -47 -71 -7 -7 -13 -18 -13 -23 0 -6 -20
-41 -45 -79 -25 -38 -50 -80 -55 -92 -6 -13 -14 -30 -19 -38 -32 -51 -113
-196 -170 -305 -17 -33 -56 -105 -86 -160 -29 -55 -91 -172 -135 -260 -45 -88
-85 -167 -90 -175 -5 -8 -19 -42 -31 -75 -13 -33 -29 -67 -36 -76 -7 -8 -13
-20 -13 -25 0 -5 -15 -40 -34 -79 -18 -38 -41 -88 -49 -110 -24 -64 -88 -218
-102 -245 -7 -14 -25 -60 -40 -104 -14 -43 -30 -86 -35 -95 -5 -9 -18 -45 -30
-81 -12 -36 -28 -78 -35 -95 -7 -16 -21 -57 -30 -90 -18 -61 -59 -188 -74
-228 -16 -43 -77 -257 -85 -297 -4 -23 -11 -45 -48 -160 -7 -19 -15 -55 -19
-80 -4 -25 -12 -58 -18 -75 -6 -16 -20 -75 -31 -130 -11 -55 -25 -118 -31
-140 -19 -74 -39 -169 -50 -235 -6 -36 -17 -96 -24 -135 -14 -68 -24 -130 -45
-285 -6 -41 -17 -115 -25 -165 -40 -244 -70 -705 -69 -1050 0 -369 22 -1097
34 -1185 6 -36 14 -117 19 -180 5 -63 14 -135 20 -160 6 -25 15 -74 20 -110
23 -147 33 -209 46 -275 8 -38 19 -99 25 -135 17 -93 36 -188 48 -240 7 -25
16 -70 22 -100 18 -88 38 -182 50 -230 7 -25 21 -81 32 -125 11 -44 25 -88 30
-99 5 -10 13 -39 18 -65 4 -25 12 -59 18 -76 6 -16 20 -64 32 -105 13 -41 28
-91 35 -110 7 -19 18 -51 24 -70 7 -19 19 -57 26 -85 16 -62 34 -112 51 -147
8 -14 14 -32 14 -40 1 -7 9 -31 20 -53 11 -22 19 -47 20 -56 0 -8 7 -24 15
-35 8 -10 15 -29 15 -42 0 -12 9 -39 20 -59 11 -21 20 -43 20 -50 0 -6 6 -24
14 -40 31 -62 86 -199 86 -214 0 -9 7 -22 15 -29 8 -7 15 -19 15 -27 0 -8 6
-27 14 -41 8 -15 24 -48 35 -75 62 -141 92 -209 102 -227 4 -8 60 -118 124
-245 109 -214 172 -335 209 -395 8 -14 20 -37 27 -53 6 -15 15 -27 19 -27 4 0
13 -12 19 -28 12 -29 20 -43 66 -112 46 -69 54 -83 66 -112 6 -16 15 -28 19
-28 4 0 13 -12 19 -27 11 -30 17 -39 69 -115 17 -26 32 -51 32 -56 0 -4 15
-30 33 -58 17 -28 37 -58 42 -67 6 -9 29 -43 53 -77 23 -33 42 -63 42 -66 0
-2 38 -56 85 -119 47 -63 85 -117 85 -120 0 -3 24 -36 53 -74 28 -38 68 -93
87 -121 80 -117 243 -338 277 -375 10 -11 38 -45 63 -75 24 -30 92 -109 149
-175 58 -66 117 -133 131 -149 186 -216 603 -639 845 -857 310 -279 456 -408
570 -501 11 -9 70 -59 131 -110 372 -316 771 -604 1314 -950 179 -113 175
-111 347 -212 65 -38 154 -90 198 -116 80 -47 121 -70 330 -183 61 -32 115
-62 120 -67 12 -9 303 -160 540 -280 198 -100 411 -197 635 -290 25 -10 87
-37 138 -60 51 -22 132 -56 180 -74 48 -19 105 -41 127 -49 22 -9 74 -28 115
-42 73 -26 215 -80 255 -96 11 -4 143 -49 294 -100 151 -50 284 -95 295 -99
12 -4 73 -22 136 -40 63 -18 131 -38 151 -45 20 -8 119 -37 220 -65 101 -28
202 -57 224 -65 22 -8 63 -18 90 -24 28 -5 138 -32 245 -60 209 -53 317 -78
635 -145 138 -29 618 -123 790 -155 171 -31 442 -70 670 -96 77 -8 176 -20
220 -25 120 -15 302 -30 475 -40 85 -4 218 -13 295 -19 330 -25 695 -34 1565
-39 931 -4 1351 5 1705 39 61 6 164 15 230 19 165 12 326 27 415 40 98 13 241
29 360 40 52 4 102 11 110 14 8 3 53 10 100 16 113 13 264 35 375 55 50 9 113
20 140 25 28 4 70 13 95 18 25 6 88 18 140 27 52 9 129 23 170 31 41 9 98 20
125 26 57 11 145 31 238 52 34 8 73 17 87 20 14 3 54 12 90 21 36 9 87 20 115
25 27 5 61 14 75 19 14 5 59 17 100 26 41 10 95 23 120 30 25 7 65 18 90 24
25 7 68 19 95 27 28 7 91 25 140 38 144 39 363 102 450 130 22 8 65 21 95 30
110 33 395 127 411 136 9 4 83 31 165 59 153 52 275 95 384 136 19 7 76 27
125 45 50 18 114 43 143 56 29 13 56 24 60 24 7 0 121 46 187 75 17 8 77 35
135 60 185 82 299 137 585 281 462 233 657 334 716 370 31 19 59 34 62 34 2 0
60 32 128 72 68 39 133 76 144 82 11 6 34 21 50 32 17 12 53 33 80 48 104 56
486 300 735 471 194 133 247 171 375 265 40 30 86 64 101 75 31 22 154 120
301 240 255 207 401 332 553 475 92 85 230 214 308 285 240 221 655 646 878
900 134 153 251 299 538 675 52 69 113 148 134 175 35 45 305 450 380 570 17
28 57 95 88 150 32 55 72 123 89 150 17 28 42 70 56 95 30 57 116 210 130 230
5 8 12 23 16 34 3 10 18 41 33 70 67 127 168 333 280 571 21 44 54 123 74 175
20 52 47 118 61 145 13 28 47 115 74 195 27 80 69 204 94 275 102 292 130 384
192 620 13 50 36 131 53 180 16 50 46 160 66 245 20 85 49 202 63 260 14 58
34 152 44 210 10 58 25 143 34 190 9 47 20 123 26 170 5 46 16 120 24 165 40
218 57 431 76 915 19 481 -10 1237 -61 1600 -11 80 -27 195 -34 255 -28 219
-61 381 -172 845 -66 275 -155 589 -223 785 -6 17 -23 66 -37 110 -44 130 -54
158 -70 200 -9 22 -20 49 -24 60 -32 86 -56 146 -71 182 -11 23 -19 47 -19 53
0 7 -7 25 -15 41 -34 67 -43 85 -49 113 -4 17 -21 56 -37 89 -16 32 -29 63
-29 68 0 9 -24 63 -117 259 -50 105 -78 160 -189 377 -42 82 -79 152 -84 158
-4 5 -29 51 -55 100 -27 50 -60 108 -74 130 -14 22 -31 51 -38 64 -48 88 -62
111 -91 154 -18 26 -37 58 -43 70 -5 12 -18 36 -29 52 -11 17 -23 37 -27 45
-4 8 -21 35 -38 60 -17 25 -45 67 -61 93 -39 65 -48 79 -129 197 -38 56 -75
110 -80 119 -16 25 -49 75 -57 86 -55 71 -156 208 -168 225 -18 27 -201 263
-209 270 -4 3 -31 37 -61 75 -30 39 -93 115 -140 169 -47 55 -95 113 -106 128
-23 31 -36 45 -308 336 -177 190 -495 508 -651 653 -268 247 -374 342 -479
430 -16 13 -46 38 -65 55 -146 125 -788 603 -1036 770 -27 18 -68 46 -90 62
-108 76 -210 145 -310 207 -60 37 -132 82 -160 100 -86 56 -277 170 -335 200
-30 16 -62 34 -70 41 -45 35 -470 261 -788 418 -51 26 -100 51 -110 56 -18 10
-242 116 -302 143 -19 8 -71 32 -115 52 -44 20 -102 46 -130 57 -27 11 -54 23
-60 27 -5 4 -73 34 -150 65 -139 57 -177 73 -225 94 -14 6 -50 21 -80 32 -30
11 -64 25 -75 30 -20 9 -66 26 -330 127 -164 62 -187 70 -260 95 -33 11 -87
30 -120 42 -111 42 -526 174 -650 208 -22 5 -52 15 -67 20 -14 5 -41 13 -60
18 -18 4 -60 15 -93 25 -104 29 -186 51 -315 84 -69 17 -150 38 -180 46 -92
24 -380 91 -470 110 -47 9 -98 21 -115 26 -37 11 -262 56 -370 74 -44 8 -118
20 -165 29 -357 64 -724 120 -895 136 -55 6 -129 14 -165 20 -36 5 -128 17
-205 25 -77 9 -178 20 -225 25 -191 23 -381 36 -831 60 -228 12 -1990 11
-2244 -1z m4068 -4675 c32 -8 74 -14 92 -14 19 0 44 -4 57 -9 13 -5 55 -19 93
-31 39 -13 92 -33 119 -46 28 -13 54 -24 59 -24 21 0 216 -130 303 -203 157
-130 268 -303 321 -503 23 -86 26 -118 25 -244 -1 -80 -2 -158 -4 -174 -4 -41
20 -54 63 -34 19 9 52 21 74 28 22 6 54 16 70 22 17 5 44 13 60 17 17 4 40 13
52 19 12 7 36 12 53 12 17 0 41 5 53 12 22 11 51 19 152 39 28 5 59 13 70 18
21 9 106 27 185 41 25 4 65 12 90 18 76 18 146 33 202 43 29 5 91 16 138 24
47 9 114 20 150 25 36 6 78 14 94 20 16 5 47 10 70 10 23 0 57 5 76 11 19 6
69 15 110 19 41 5 111 13 155 20 245 35 385 51 515 60 63 5 158 13 210 19 55
6 318 11 630 11 549 0 582 -2 720 -42 77 -22 187 -85 248 -142 161 -151 184
-383 54 -554 -27 -36 -138 -118 -192 -143 -85 -39 -112 -49 -135 -49 -13 0
-36 -5 -51 -11 -30 -11 -223 -23 -644 -39 -140 -6 -284 -15 -320 -20 -36 -5
-105 -10 -155 -10 -49 0 -130 -7 -180 -15 -49 -8 -122 -15 -162 -15 -40 0 -94
-5 -120 -10 -26 -6 -82 -14 -123 -20 -41 -5 -115 -16 -165 -25 -49 -8 -120
-19 -156 -23 -94 -11 -139 -47 -111 -88 4 -6 54 -34 112 -63 58 -29 109 -57
115 -62 5 -5 15 -9 22 -9 7 0 65 -25 128 -55 64 -30 117 -55 120 -55 9 0 279
-153 360 -204 409 -259 833 -648 1127 -1033 270 -355 399 -570 541 -908 52
-124 67 -164 67 -178 0 -8 7 -28 15 -43 8 -16 15 -37 15 -46 0 -10 6 -32 14
-50 12 -29 24 -68 67 -228 52 -195 95 -589 85 -775 -22 -386 -96 -726 -222
-1022 -8 -17 -14 -34 -14 -37 0 -16 -154 -312 -208 -401 -34 -55 -74 -120 -89
-145 -56 -92 -286 -391 -377 -490 -28 -31 -80 -89 -116 -130 -155 -177 -689
-696 -815 -791 -16 -13 -48 -39 -71 -58 -22 -20 -58 -49 -79 -66 -22 -16 -46
-37 -55 -45 -8 -8 -36 -31 -60 -50 -25 -18 -61 -48 -81 -65 -19 -16 -52 -43
-73 -60 -21 -16 -53 -42 -70 -56 -72 -60 -276 -210 -536 -395 -19 -14 -64 -46
-100 -71 -36 -26 -180 -128 -320 -227 -140 -98 -293 -206 -340 -240 -47 -33
-116 -82 -155 -108 -38 -27 -97 -69 -130 -93 -33 -24 -130 -92 -215 -150 -85
-58 -207 -142 -270 -186 -63 -45 -151 -105 -195 -134 -44 -30 -105 -71 -135
-92 -186 -130 -236 -166 -340 -236 -185 -125 -240 -164 -325 -227 -44 -33
-111 -82 -150 -110 -38 -28 -95 -70 -126 -93 -199 -150 -260 -195 -305 -227
-289 -202 -613 -469 -1129 -934 -150 -135 -395 -368 -491 -467 -50 -52 -145
-150 -211 -219 -186 -192 -265 -288 -540 -661 -35 -46 -79 -104 -98 -129 -20
-25 -55 -72 -79 -105 -101 -139 -166 -186 -174 -128 -5 33 37 148 89 243 10
19 64 125 120 235 56 110 109 211 118 225 10 14 25 44 34 68 10 24 36 75 58
115 23 40 61 109 85 155 24 46 61 109 82 142 20 32 58 91 84 132 46 71 145
218 223 328 90 128 405 541 488 640 11 14 41 50 67 80 25 30 80 96 120 145 41
50 106 126 145 171 38 44 97 111 130 150 141 163 714 747 1049 1069 23 22 111
107 196 189 272 263 331 318 530 500 107 99 294 274 415 390 266 256 413 396
524 501 204 193 541 534 692 700 90 99 166 182 170 185 9 7 153 174 229 265
36 43 70 83 75 89 28 31 100 121 164 206 39 52 74 100 79 105 45 58 197 309
282 465 38 70 139 263 146 280 17 39 49 111 75 165 16 33 29 66 29 72 0 7 8
32 19 55 49 112 85 248 112 423 13 81 6 451 -10 535 -5 30 -15 84 -20 120 -23
142 -85 348 -151 495 -10 22 -20 47 -24 55 -3 8 -15 29 -26 45 -11 17 -24 41
-30 54 -6 13 -23 40 -38 60 -16 20 -40 56 -54 81 -62 108 -365 422 -548 570
-224 179 -518 361 -755 465 -33 14 -68 31 -79 36 -10 6 -45 19 -79 30 -33 10
-65 23 -71 28 -6 4 -22 11 -36 14 -32 6 -89 27 -115 40 -11 6 -36 14 -55 18
-19 4 -64 15 -100 23 -36 8 -78 18 -95 21 -324 63 -363 67 -670 63 -271 -4
-388 -13 -525 -43 -36 -8 -78 -16 -95 -19 -16 -2 -59 -12 -95 -20 -36 -9 -83
-21 -106 -26 -22 -5 -51 -13 -65 -18 -13 -6 -51 -18 -84 -27 -33 -10 -67 -21
-75 -25 -9 -4 -31 -11 -50 -15 -19 -4 -39 -11 -45 -15 -5 -4 -21 -10 -35 -13
-14 -3 -50 -15 -80 -27 -30 -12 -66 -25 -80 -30 -14 -4 -55 -21 -92 -39 -37
-17 -96 -42 -130 -57 -35 -14 -85 -38 -113 -54 -27 -15 -108 -58 -180 -95 -71
-37 -159 -87 -195 -109 -36 -23 -92 -57 -125 -76 -109 -61 -348 -224 -495
-336 -167 -128 -202 -156 -374 -304 -92 -80 -188 -162 -213 -182 -41 -34 -201
-175 -213 -188 -3 -3 -25 -21 -50 -40 -25 -19 -75 -62 -112 -97 -105 -97 -218
-152 -253 -123 -22 18 6 109 86 286 69 152 86 187 167 334 186 342 519 833
697 1031 27 30 88 100 135 154 189 220 528 537 791 740 79 61 349 252 404 285
22 13 63 40 90 60 28 20 69 45 93 55 23 10 42 24 42 32 0 7 -26 25 -57 39
-204 92 -260 125 -371 217 -84 71 -218 219 -264 292 -109 174 -148 305 -148
500 0 139 29 283 77 375 7 14 13 28 13 32 0 4 24 47 52 95 99 165 318 354 513
442 39 17 78 36 87 41 10 6 23 10 30 10 7 0 24 6 38 13 14 8 66 24 115 36 50
12 99 24 110 28 78 23 470 21 568 -3z m-6223 -1884 c189 -14 293 -29 420 -61
25 -6 59 -13 75 -15 29 -5 69 -15 184 -48 29 -9 61 -16 70 -16 19 -1 119 -34
128 -44 3 -3 17 -6 31 -6 13 0 38 -6 55 -13 18 -8 57 -22 87 -31 98 -32 323
-129 421 -183 53 -29 99 -53 103 -53 13 0 227 -127 316 -189 302 -208 508
-374 778 -629 197 -186 292 -301 405 -494 63 -107 71 -138 34 -138 -39 0 -120
34 -397 168 -461 221 -472 226 -655 297 -109 42 -136 52 -195 71 -30 10 -59
21 -65 25 -5 3 -44 16 -85 28 -41 12 -85 26 -98 32 -13 5 -31 9 -40 9 -9 0
-30 7 -46 15 -15 8 -37 15 -47 15 -10 0 -33 6 -51 14 -18 8 -67 21 -108 31
-41 9 -86 21 -100 25 -14 5 -61 16 -105 25 -44 9 -109 23 -145 30 -60 13 -153
26 -390 56 -134 17 -576 23 -685 9 -50 -6 -128 -15 -175 -20 -47 -5 -101 -14
-120 -20 -19 -5 -56 -10 -82 -10 -26 0 -58 -4 -73 -10 -14 -5 -49 -14 -78 -19
-29 -6 -81 -17 -117 -26 -36 -9 -84 -20 -108 -25 -24 -5 -48 -13 -54 -16 -6
-4 -28 -11 -47 -15 -37 -7 -94 -26 -121 -39 -9 -4 -30 -11 -48 -14 -17 -4 -34
-12 -37 -17 -4 -5 -13 -9 -21 -9 -9 0 -45 -13 -81 -30 -35 -16 -66 -30 -68
-30 -14 0 -188 -85 -290 -141 -435 -239 -762 -485 -1026 -771 -266 -289 -387
-464 -499 -723 -12 -27 -28 -62 -36 -77 -8 -14 -14 -35 -14 -45 0 -10 -5 -24
-10 -29 -9 -9 -27 -64 -51 -159 -6 -22 -16 -62 -24 -90 -48 -171 -50 -189 -50
-490 0 -215 4 -302 14 -335 7 -25 19 -70 27 -100 53 -224 98 -364 149 -463 8
-16 15 -35 15 -42 0 -7 11 -35 24 -62 13 -26 47 -95 75 -153 29 -58 56 -112
61 -120 5 -8 36 -62 70 -120 82 -142 161 -264 205 -317 6 -6 26 -35 45 -63 43
-63 209 -281 225 -295 6 -5 29 -32 50 -60 163 -207 556 -619 875 -915 175
-163 235 -218 290 -266 24 -21 74 -66 110 -100 36 -33 126 -112 200 -174 146
-122 204 -172 344 -295 86 -76 154 -132 410 -340 90 -72 445 -367 556 -462
311 -264 562 -480 729 -626 177 -155 313 -274 421 -367 217 -188 530 -505 735
-745 28 -32 58 -67 68 -78 10 -10 31 -35 45 -56 15 -21 54 -74 87 -119 126
-171 377 -552 390 -591 17 -55 -27 -96 -77 -71 -31 16 -128 91 -208 160 -81
71 -274 226 -501 403 -96 74 -230 180 -298 234 -440 349 -700 540 -1396 1027
-143 101 -294 205 -335 233 -302 202 -899 610 -1093 747 -70 50 -163 116 -208
146 -44 30 -130 91 -192 135 -62 44 -157 111 -212 150 -229 158 -267 185 -452
319 -134 98 -619 478 -745 585 -515 435 -630 544 -1034 972 -128 136 -295 352
-378 489 -15 25 -47 77 -71 115 -24 39 -54 90 -67 115 -12 25 -46 86 -75 137
-29 50 -53 95 -53 99 0 5 -14 38 -31 74 -74 157 -76 161 -128 317 -101 305
-119 412 -128 763 -8 313 15 565 73 785 48 184 94 334 105 340 5 4 9 13 9 22
0 8 6 29 14 46 42 92 56 127 56 137 0 6 27 66 60 133 126 256 273 489 440 697
30 38 63 79 73 92 83 109 386 425 507 529 146 125 200 169 300 242 58 42 125
91 150 110 72 54 433 283 458 291 12 4 50 24 85 45 34 20 78 44 97 53 87 42
190 88 240 108 30 12 69 28 85 35 17 7 64 25 105 40 41 15 89 33 105 40 67 27
222 75 241 75 11 0 24 4 29 9 6 6 30 15 55 21 25 6 72 18 105 26 72 18 114 28
178 43 26 6 68 16 95 23 26 6 76 14 112 18 36 4 72 10 80 14 20 8 214 27 365
35 177 10 444 11 575 1z"/>
<path d="M3523 22571 c-117 -4 -217 -11 -221 -16 -12 -14 -45 -319 -41 -375 4
-43 6 -45 39 -50 19 -3 105 -3 190 0 l155 5 0 92 c0 126 3 129 120 108 48 -8
173 -18 277 -22 139 -4 191 -10 199 -20 8 -9 13 -284 17 -971 2 -543 8 -965
14 -974 8 -16 27 -18 181 -18 121 0 177 4 185 12 9 9 12 235 12 954 0 581 4
952 10 968 5 14 20 28 32 31 25 6 443 38 496 38 49 1 63 -20 74 -114 5 -46 13
-88 17 -92 11 -11 168 -27 269 -27 l83 0 -3 225 c-2 167 -6 227 -16 237 -10
10 -195 13 -945 14 -513 0 -1028 -2 -1144 -5z"/>
<path d="M5937 22573 c-4 -3 -7 -57 -7 -119 0 -131 -8 -122 126 -134 96 -8
132 -22 139 -55 3 -11 6 -444 7 -962 2 -757 6 -945 16 -955 18 -18 365 -16
387 2 12 10 15 82 17 475 2 293 7 468 13 474 13 12 1286 32 1301 20 21 -17 27
-106 33 -544 l6 -440 189 -3 c145 -2 191 1 197 10 5 7 8 437 9 955 0 518 3
955 6 971 l6 29 85 -4 c100 -4 129 8 138 59 15 81 21 185 13 207 l-9 24 -287
-5 c-271 -4 -312 -8 -341 -35 -3 -2 -8 -209 -11 -460 -6 -435 -7 -456 -25
-470 -17 -11 -117 -13 -640 -11 -699 3 -674 1 -687 73 -4 22 -12 218 -17 435
-6 217 -13 405 -17 417 -3 12 -14 25 -24 28 -54 17 -608 34 -623 18z"/>
<path d="M8994 22565 c-8 -19 -1 -231 7 -239 3 -4 57 -9 118 -13 109 -6 113
-7 123 -32 11 -29 27 -828 28 -1431 1 -217 5 -415 8 -440 l7 -45 60 -8 c33 -5
305 -11 605 -14 604 -6 935 7 971 36 15 12 23 38 31 106 10 79 9 106 -8 210
-25 147 -27 149 -157 141 -117 -8 -135 -18 -176 -106 -19 -39 -45 -78 -58 -87
-39 -26 -419 -40 -656 -24 -103 6 -194 14 -202 17 -8 3 -17 15 -21 27 -12 39
-8 626 5 641 9 11 32 12 99 8 107 -6 761 17 783 29 22 11 28 229 6 247 -9 8
-142 12 -439 14 -342 2 -428 6 -441 17 -15 12 -17 49 -17 343 0 208 4 336 10
349 10 18 23 19 248 18 131 0 294 3 362 6 162 9 159 11 172 -121 7 -71 14
-102 26 -111 11 -9 65 -13 185 -13 l169 0 -6 143 c-8 168 -25 317 -39 335 -7
9 -200 12 -904 12 -787 0 -894 -2 -899 -15z"/>
<path d="M21670 19369 c-161 -13 -279 -27 -291 -34 -6 -4 -36 -11 -67 -16 -52
-7 -84 -14 -222 -49 -25 -7 -54 -15 -65 -20 -11 -5 -29 -11 -40 -13 -11 -3
-45 -15 -75 -27 -30 -12 -64 -24 -75 -27 -11 -3 -33 -11 -50 -18 -16 -7 -41
-17 -55 -22 -14 -5 -92 -43 -174 -84 -158 -78 -302 -175 -399 -268 -61 -57
-200 -233 -228 -286 -8 -17 -25 -48 -37 -70 -21 -40 -45 -95 -74 -170 -30 -78
-40 -111 -50 -155 -5 -25 -14 -61 -20 -80 -5 -19 -12 -105 -15 -191 -4 -125
-2 -167 11 -212 9 -30 16 -63 16 -72 0 -10 10 -39 21 -64 40 -86 101 -206 120
-236 10 -16 24 -40 30 -52 7 -13 16 -23 20 -23 5 0 15 -13 24 -30 21 -40 180
-206 263 -273 64 -52 90 -71 211 -155 61 -42 179 -108 261 -147 30 -15 96 -46
145 -70 107 -51 352 -155 366 -155 6 0 31 -9 57 -21 60 -26 78 -33 127 -52
129 -49 264 -101 290 -112 17 -7 48 -19 70 -28 101 -38 221 -86 283 -113 18
-8 37 -14 42 -14 5 0 62 -25 127 -56 114 -54 132 -63 218 -110 22 -13 58 -32
80 -44 59 -32 179 -125 241 -188 147 -149 173 -354 72 -571 -33 -73 -52 -98
-127 -171 -72 -69 -108 -95 -197 -141 -60 -31 -124 -60 -142 -63 -17 -4 -34
-12 -37 -17 -4 -5 -15 -9 -27 -9 -11 0 -41 -7 -67 -15 -112 -35 -191 -45 -349
-45 -87 0 -184 5 -213 11 -30 6 -79 14 -109 19 -30 4 -84 15 -120 23 -36 9
-85 21 -110 27 -25 6 -54 14 -65 19 -11 5 -47 17 -80 27 -189 56 -589 276
-760 419 -89 74 -137 105 -165 105 -22 0 -58 -31 -182 -157 -85 -87 -211 -218
-279 -292 -68 -74 -143 -148 -166 -165 -55 -38 -56 -65 -3 -81 14 -4 54 -31
90 -60 126 -103 413 -287 530 -342 118 -55 201 -93 230 -105 85 -36 197 -78
209 -78 7 0 25 -6 39 -14 15 -8 54 -22 87 -30 33 -9 95 -28 137 -41 43 -14 85
-25 94 -25 15 0 71 -14 159 -41 104 -31 397 -62 580 -61 185 1 513 32 640 61
22 5 76 17 120 26 44 9 103 23 130 31 28 7 79 20 115 29 177 44 441 173 617
300 350 254 554 528 624 840 40 179 48 356 24 500 -70 405 -296 717 -720 994
-84 55 -303 172 -410 219 -67 30 -303 125 -345 139 -25 8 -58 21 -75 28 -16 7
-59 23 -95 35 -36 13 -69 27 -75 32 -5 4 -17 8 -27 8 -9 0 -34 7 -55 16 -48
21 -64 27 -143 55 -36 12 -69 26 -75 31 -5 4 -17 8 -26 8 -9 0 -50 14 -90 31
-89 38 -76 32 -274 110 -132 52 -281 122 -455 215 -85 45 -204 169 -254 264
-59 112 -62 263 -8 373 37 75 120 170 197 227 42 31 204 115 270 141 139 53
420 97 560 86 130 -10 238 -24 270 -35 17 -5 57 -18 90 -27 183 -51 297 -110
433 -223 86 -72 104 -113 116 -266 l11 -131 490 0 490 0 3 185 c2 102 -2 256
-8 343 -16 238 -60 345 -197 478 -75 72 -150 122 -299 196 -124 62 -291 129
-369 149 -11 3 -56 16 -100 29 -165 50 -268 73 -382 85 -40 5 -77 11 -83 15
-11 7 -113 18 -315 35 -129 10 -301 10 -435 -1z"/>
<path d="M16405 19358 c-60 -4 -141 -13 -180 -20 -38 -6 -97 -14 -130 -19 -87
-11 -250 -52 -335 -84 -25 -9 -56 -19 -70 -22 -14 -3 -34 -12 -45 -19 -11 -8
-27 -14 -36 -14 -10 0 -30 -6 -46 -14 -15 -8 -39 -19 -53 -24 -28 -11 -156
-69 -183 -84 -10 -5 -37 -19 -60 -30 -41 -21 -179 -110 -227 -147 -103 -79
-270 -268 -319 -361 -13 -25 -29 -52 -35 -60 -36 -47 -101 -203 -116 -278 -5
-23 -15 -52 -21 -64 -16 -30 -24 -373 -11 -463 12 -81 28 -147 47 -190 40 -92
89 -186 120 -233 19 -30 35 -56 35 -60 0 -7 98 -122 118 -139 8 -7 40 -36 71
-66 55 -52 214 -177 226 -177 3 0 29 -17 58 -39 52 -39 293 -181 307 -181 4 0
58 -26 121 -58 63 -31 143 -70 179 -86 36 -15 88 -39 117 -52 28 -13 55 -24
58 -24 4 0 21 -6 38 -14 18 -7 52 -21 77 -31 25 -10 59 -23 75 -30 17 -7 41
-18 55 -23 14 -6 61 -25 105 -42 44 -17 91 -37 105 -43 33 -14 85 -34 140 -53
25 -9 59 -22 75 -29 17 -7 63 -26 104 -44 40 -17 80 -31 87 -31 8 0 22 -4 32
-10 9 -5 44 -21 77 -35 61 -27 108 -48 180 -82 191 -89 427 -271 468 -360 6
-13 14 -23 19 -23 4 0 8 -6 8 -13 0 -7 10 -30 22 -52 20 -35 23 -54 22 -160 0
-124 -2 -132 -57 -244 -26 -53 -131 -167 -196 -215 -93 -67 -294 -160 -386
-177 -22 -4 -58 -12 -80 -18 -132 -33 -290 -40 -459 -20 -114 13 -342 59 -391
79 -11 5 -40 13 -65 20 -25 6 -58 15 -75 20 -34 9 -160 55 -190 69 -132 60
-166 76 -205 95 -121 60 -294 164 -428 257 -45 32 -87 53 -111 56 -36 5 -41 2
-97 -55 -183 -187 -267 -271 -398 -401 -80 -80 -146 -152 -146 -160 0 -36 261
-229 485 -359 111 -64 433 -222 453 -222 6 0 37 -11 69 -24 128 -51 360 -122
450 -136 28 -4 58 -12 65 -16 7 -4 30 -11 53 -15 22 -4 78 -15 125 -23 118
-22 394 -46 525 -45 194 0 461 30 665 75 41 9 93 19 115 24 22 4 54 12 70 18
17 5 50 15 75 22 43 12 120 37 205 67 42 15 228 107 306 152 135 77 362 259
434 347 22 27 46 56 53 64 173 199 282 522 282 837 0 232 -74 522 -167 656
-18 26 -33 50 -33 53 0 3 -23 35 -50 69 -126 158 -377 356 -618 487 -77 42
-258 131 -307 152 -22 10 -53 23 -70 30 -16 8 -50 21 -75 31 -25 9 -56 22 -70
27 -14 5 -45 17 -70 25 -25 9 -56 20 -70 26 -38 15 -182 67 -205 74 -21 5
-176 59 -210 73 -11 4 -42 16 -70 25 -27 9 -86 31 -130 47 -44 17 -89 34 -100
38 -50 19 -114 45 -161 66 -27 13 -74 32 -102 43 -80 32 -258 127 -348 187
-80 52 -254 222 -254 248 0 6 -5 17 -11 23 -24 24 -49 118 -49 181 0 55 6 77
46 160 40 82 59 109 128 177 45 44 102 91 127 104 109 59 215 111 227 111 8 0
28 6 45 14 44 18 121 37 192 47 33 5 83 13 110 18 66 13 238 13 295 0 25 -5
74 -14 110 -19 36 -4 90 -16 120 -25 30 -9 75 -22 100 -27 60 -14 206 -78 277
-122 119 -73 195 -171 222 -286 5 -25 13 -83 17 -128 6 -66 10 -82 23 -82 9 1
232 -1 496 -2 l480 -3 0 285 c-1 345 -8 399 -71 521 -65 126 -204 263 -354
347 -36 21 -169 87 -210 105 -97 43 -128 56 -165 67 -22 7 -56 18 -75 25 -19
7 -62 21 -95 30 -33 9 -73 21 -90 26 -346 100 -791 139 -1210 107z"/>
<path d="M31180 19360 c-30 -4 -91 -8 -135 -9 -44 -1 -96 -6 -115 -12 -19 -6
-71 -14 -115 -19 -44 -5 -102 -13 -130 -20 -27 -6 -84 -18 -125 -27 -99 -20
-149 -32 -185 -45 -16 -6 -46 -13 -65 -15 -19 -3 -40 -9 -45 -14 -6 -4 -29
-12 -50 -18 -22 -5 -56 -15 -75 -22 -19 -7 -66 -23 -105 -36 -282 -98 -600
-265 -843 -443 -56 -41 -120 -87 -141 -102 -98 -70 -298 -276 -437 -450 -149
-187 -263 -380 -357 -603 -30 -71 -62 -155 -71 -185 -101 -344 -120 -458 -120
-735 0 -234 15 -356 64 -526 12 -41 28 -96 35 -124 12 -47 21 -73 73 -217 136
-379 379 -754 653 -1014 193 -183 328 -285 600 -457 68 -42 403 -207 422 -207
7 0 17 -4 23 -8 5 -5 38 -19 74 -31 36 -13 74 -27 85 -32 63 -27 100 -39 116
-39 10 0 33 -6 51 -14 18 -8 58 -21 88 -29 179 -47 230 -60 270 -66 25 -4 63
-13 85 -19 50 -14 169 -37 260 -51 213 -34 617 -41 855 -15 80 9 177 19 215
24 73 8 147 21 252 46 34 8 74 14 90 14 16 0 49 6 74 14 24 8 78 21 119 31 41
9 113 29 160 45 82 27 108 37 177 66 17 8 35 14 39 14 35 0 443 188 524 240
14 9 43 28 65 42 265 165 437 296 612 464 62 61 90 90 187 204 89 104 206 265
236 325 5 11 21 38 34 60 38 62 136 263 136 280 1 6 9 28 20 50 11 22 19 46
20 53 0 8 6 26 14 40 7 15 23 61 36 102 12 41 28 95 36 120 8 25 14 56 14 68
0 13 7 47 15 75 22 77 36 237 42 459 7 278 -15 432 -107 733 -32 105 -41 128
-121 300 -30 65 -172 317 -191 340 -5 5 -26 35 -48 65 -168 235 -489 547 -720
700 -175 116 -425 247 -620 325 -25 10 -59 24 -77 31 -17 8 -36 14 -42 14 -6
0 -27 7 -48 16 -51 22 -67 28 -138 49 -33 9 -71 22 -85 28 -14 5 -43 14 -65
18 -22 4 -67 15 -100 24 -85 23 -181 45 -240 54 -27 4 -77 13 -110 19 -131 25
-204 35 -295 44 -132 12 -683 18 -750 8z m516 -851 c32 -6 91 -15 129 -20 80
-9 191 -30 285 -54 36 -9 83 -20 105 -24 56 -12 128 -38 292 -105 120 -49 222
-101 290 -147 23 -16 44 -29 48 -29 3 0 59 -39 123 -87 116 -86 394 -352 443
-424 96 -142 140 -209 149 -230 6 -13 20 -40 32 -59 46 -76 118 -297 144 -440
40 -229 14 -590 -61 -820 -43 -132 -131 -320 -196 -418 -16 -24 -29 -45 -29
-47 0 -3 -39 -55 -87 -117 -118 -154 -265 -298 -425 -416 -146 -108 -388 -229
-583 -292 -55 -18 -111 -37 -125 -43 -14 -5 -43 -14 -65 -18 -22 -5 -69 -15
-105 -24 -145 -36 -257 -48 -520 -52 -253 -5 -357 1 -520 29 -30 5 -78 13
-107 18 -28 4 -57 12 -64 16 -7 4 -29 11 -48 15 -117 24 -414 158 -596 269
-225 137 -477 356 -571 495 -19 28 -52 75 -74 105 -21 30 -64 107 -96 170 -31
63 -60 123 -65 132 -17 33 -73 196 -103 298 -8 30 -25 111 -37 180 -35 206
-16 533 39 670 5 14 17 52 27 85 59 204 225 476 403 659 106 109 327 286 421
338 23 13 50 28 59 33 108 64 144 85 148 85 3 0 47 20 97 44 51 24 101 47 112
51 113 43 187 68 220 74 23 4 47 11 55 16 8 5 32 12 55 16 22 4 76 15 120 24
44 9 109 20 145 25 36 5 83 13 105 18 56 14 359 14 431 1z"/>
<path d="M2787 19284 c-4 -4 -7 -177 -7 -385 0 -350 1 -377 18 -384 9 -4 127
-11 262 -15 263 -9 303 -14 322 -38 10 -12 14 -471 16 -2315 1 -1265 3 -2301
5 -2303 3 -2 931 -8 1045 -6 l92 2 0 933 c0 779 2 936 14 952 22 30 107 34
826 35 376 0 708 5 765 11 201 20 261 28 305 40 117 30 160 42 218 65 34 13
69 24 78 24 24 0 280 127 355 176 37 24 69 44 73 44 20 0 235 184 309 265 56
60 135 161 163 208 16 27 37 61 46 75 10 15 21 34 25 42 3 8 15 27 25 42 10
14 18 35 18 46 0 11 7 25 15 32 8 7 15 22 15 34 0 12 7 31 15 42 8 12 19 39
24 60 6 22 15 59 21 84 7 25 19 72 28 105 11 44 16 126 20 315 4 285 -5 375
-60 565 -23 80 -74 223 -89 245 -5 8 -15 26 -21 40 -86 175 -250 378 -403 498
-218 171 -524 316 -790 375 -183 40 -332 62 -540 78 -168 14 -3195 25 -3208
13z m3088 -803 c151 -31 177 -38 255 -66 235 -86 455 -289 543 -500 53 -127
67 -209 67 -387 0 -161 -4 -193 -47 -338 -54 -183 -222 -390 -394 -484 -173
-94 -232 -116 -424 -157 -80 -17 -1284 -26 -1315 -9 -20 11 -20 15 -20 968 0
526 4 962 8 969 11 17 137 20 747 18 360 -2 538 -6 580 -14z"/>
<path d="M10186 19268 c-8 -13 -17 -43 -21 -67 -4 -24 -30 -89 -57 -145 -51
-102 -60 -121 -98 -211 -11 -27 -28 -63 -35 -78 -8 -16 -15 -34 -15 -40 0 -7
-16 -43 -35 -82 -19 -38 -35 -74 -35 -78 0 -9 -32 -83 -117 -267 -14 -30 -31
-70 -39 -88 -7 -18 -20 -47 -28 -65 -8 -17 -24 -54 -36 -82 -11 -27 -30 -67
-40 -87 -11 -20 -20 -43 -20 -51 0 -8 -7 -20 -15 -27 -8 -7 -15 -21 -15 -32 0
-11 -6 -32 -14 -46 -17 -32 -73 -154 -106 -232 -23 -54 -64 -146 -100 -225
-10 -22 -29 -67 -42 -100 -13 -33 -44 -102 -70 -153 -27 -52 -48 -100 -48
-107 0 -8 -6 -26 -14 -42 -8 -15 -24 -50 -36 -78 -39 -90 -53 -120 -62 -135
-4 -8 -11 -22 -14 -30 -3 -8 -15 -35 -26 -60 -11 -25 -26 -58 -33 -75 -7 -16
-30 -66 -50 -110 -20 -44 -43 -93 -50 -110 -7 -16 -29 -64 -49 -106 -20 -41
-36 -80 -36 -86 0 -6 -6 -16 -14 -22 -8 -7 -17 -24 -20 -39 -4 -15 -13 -42
-21 -59 -8 -18 -21 -48 -29 -65 -45 -101 -68 -148 -77 -153 -5 -4 -9 -13 -9
-22 0 -9 -10 -37 -21 -62 -12 -25 -27 -59 -34 -76 -7 -16 -23 -52 -35 -80 -12
-27 -28 -63 -35 -80 -23 -53 -56 -129 -70 -160 -13 -29 -48 -110 -65 -150 -13
-31 -90 -198 -99 -215 -72 -136 -95 -177 -106 -190 -7 -8 -15 -26 -19 -40 -8
-30 -32 -60 -69 -85 -22 -14 -55 -19 -162 -23 -101 -4 -138 -8 -147 -19 -14
-18 -19 -776 -5 -790 5 -4 194 -8 420 -8 l412 1 116 31 c64 17 136 41 160 53
62 32 159 92 159 99 0 3 13 20 28 36 40 44 69 88 120 187 19 34 38 67 43 73 5
5 9 15 9 23 0 12 13 43 55 137 49 110 60 133 72 157 7 14 13 33 13 41 0 9 6
28 14 44 34 69 56 121 56 135 0 9 7 21 15 28 8 7 15 22 15 34 0 12 7 31 15 42
8 10 15 25 15 33 0 8 8 33 18 55 46 102 52 118 52 141 0 30 32 61 72 69 17 3
545 6 1173 6 1140 0 1142 0 1169 -21 14 -11 26 -27 26 -35 0 -8 9 -31 20 -51
11 -21 20 -45 20 -53 0 -8 7 -24 15 -34 8 -11 15 -29 15 -41 0 -12 7 -30 15
-41 8 -10 15 -26 15 -34 0 -8 9 -32 20 -53 11 -20 20 -43 20 -51 0 -8 7 -27
15 -43 18 -34 55 -120 55 -127 0 -3 15 -38 33 -78 18 -40 41 -93 51 -118 10
-25 22 -52 27 -60 5 -8 12 -22 15 -30 3 -8 30 -64 59 -125 29 -60 56 -117 59
-125 8 -17 19 -36 58 -95 47 -73 133 -126 283 -172 129 -41 201 -48 475 -48
169 0 532 9 558 14 1 1 1 182 0 404 l-3 402 -132 -4 -131 -3 -51 47 c-28 26
-51 51 -51 56 0 4 -19 36 -42 71 -39 58 -98 170 -151 288 -11 25 -26 57 -34
72 -7 14 -13 33 -13 41 0 9 -6 28 -14 44 -30 61 -56 121 -56 130 0 6 -7 16
-15 23 -8 7 -15 22 -15 34 0 11 -9 32 -20 46 -11 14 -20 32 -20 40 0 8 -7 24
-15 34 -8 11 -15 30 -15 42 0 12 -6 27 -14 33 -8 7 -18 25 -21 41 -3 16 -13
34 -21 41 -8 6 -14 18 -14 26 0 8 -6 27 -13 41 -8 15 -21 42 -30 60 -9 19 -17
38 -17 44 0 10 -6 25 -58 138 -30 64 -82 194 -82 203 0 4 -25 60 -56 125 -65
138 -76 162 -102 222 -11 25 -40 88 -65 141 -25 53 -49 108 -53 122 -3 15 -12
31 -20 38 -8 6 -14 20 -14 31 0 11 -9 31 -20 45 -11 14 -20 32 -20 40 0 13
-43 113 -81 185 -10 20 -19 42 -19 49 0 7 -6 20 -14 28 -7 9 -24 43 -37 76
-12 33 -29 67 -36 76 -7 8 -13 22 -13 30 0 8 -22 59 -50 114 -27 55 -50 105
-50 113 0 7 -9 30 -19 50 -19 36 -26 51 -71 157 -12 28 -28 65 -36 82 -8 18
-22 50 -30 70 -9 21 -25 55 -35 75 -11 20 -19 43 -19 51 0 8 -7 20 -15 27 -8
7 -15 19 -15 26 0 8 -16 49 -36 91 -20 43 -42 92 -49 108 -7 17 -30 66 -50
110 -21 44 -43 94 -50 110 -8 17 -26 57 -40 90 -15 33 -34 76 -42 95 -8 19
-21 50 -29 68 -8 17 -20 47 -28 65 -8 17 -39 85 -70 149 -31 65 -56 129 -56
143 0 54 -11 55 -674 55 l-606 0 -14 -22z m694 -1089 c6 -21 14 -41 19 -43 5
-3 12 -22 16 -43 4 -20 13 -46 21 -57 8 -11 14 -28 14 -37 0 -14 13 -50 50
-134 5 -11 21 -56 35 -100 15 -44 30 -84 35 -90 4 -5 10 -23 14 -40 4 -16 13
-43 20 -60 20 -46 41 -95 66 -155 12 -30 29 -67 36 -82 8 -14 14 -35 14 -45 0
-11 7 -28 15 -39 8 -10 15 -25 15 -33 0 -8 8 -32 19 -55 10 -23 35 -81 56
-131 20 -49 43 -103 50 -120 7 -16 32 -75 55 -130 23 -55 46 -104 51 -110 5
-5 9 -16 9 -25 1 -8 9 -33 20 -55 11 -22 19 -45 20 -52 0 -6 7 -24 15 -40 8
-15 22 -46 31 -68 9 -22 24 -58 33 -80 31 -73 61 -170 61 -196 0 -14 4 -29 9
-35 18 -18 23 -70 8 -83 -11 -8 -231 -11 -864 -11 -468 0 -858 3 -868 6 -25
10 -13 86 29 177 28 63 48 110 70 167 3 8 10 22 15 30 5 8 19 40 31 70 12 30
28 71 37 90 37 83 43 96 49 122 3 15 12 32 20 39 8 6 14 20 14 29 0 10 16 56
36 102 70 160 89 208 133 328 18 47 40 102 51 122 11 20 20 45 20 55 0 11 5
24 11 30 6 6 24 48 40 94 16 46 33 87 39 93 5 5 10 19 10 31 0 12 7 30 15 41
8 10 15 26 15 34 0 8 7 28 15 43 8 15 19 42 24 60 5 18 19 57 31 87 12 30 26
70 32 89 5 19 25 68 44 107 19 40 34 81 34 91 0 10 11 30 25 45 22 24 28 26
50 16 17 -7 29 -24 35 -49z"/>
<path d="M24864 19276 c-3 -8 -4 -184 -2 -391 3 -321 5 -377 18 -385 8 -6 123
-10 260 -10 213 0 332 -8 391 -26 14 -4 17 -36 23 -232 10 -321 8 -3574 -2
-3584 -4 -4 -163 -9 -352 -10 l-344 -3 2 -395 c1 -217 2 -398 2 -402 0 -7
2450 0 2457 6 1 1 -2 112 -8 247 -5 134 -9 311 -8 392 1 89 -2 152 -8 158 -7
7 -132 11 -336 12 -206 1 -330 6 -336 12 -11 11 -17 3797 -6 3815 4 6 128 10
335 10 180 0 334 2 342 5 10 4 13 80 13 398 l0 392 -1218 3 c-1054 2 -1218 0
-1223 -12z"/>
<path d="M36218 17008 c-3 -2162 -4 -2284 -21 -2309 -17 -25 -22 -26 -175 -38
-86 -6 -214 -14 -285 -18 l-127 -6 2 -396 3 -396 642 -3 c696 -2 627 -6 841
48 68 17 180 123 216 204 48 108 49 138 45 1871 l-4 1620 22 3 c24 3 76 -55
213 -238 39 -52 78 -104 88 -116 9 -11 40 -51 67 -88 28 -37 79 -102 115 -144
36 -42 99 -120 140 -172 41 -52 90 -113 110 -135 19 -22 53 -62 75 -89 83
-103 279 -336 302 -361 7 -7 49 -57 94 -111 45 -55 102 -122 128 -151 25 -29
66 -78 91 -109 25 -32 54 -66 65 -78 11 -11 31 -34 45 -52 42 -52 130 -157
169 -199 21 -22 64 -74 97 -115 33 -41 72 -88 86 -105 24 -27 66 -76 227 -264
25 -30 60 -71 77 -90 99 -113 160 -186 240 -286 27 -33 51 -62 54 -65 3 -3 35
-41 70 -85 35 -44 67 -82 70 -85 3 -3 33 -39 65 -80 33 -41 89 -109 125 -151
90 -106 104 -124 195 -243 60 -79 89 -108 115 -118 44 -15 975 -23 1014 -8
l26 9 0 2197 c0 1208 3 2215 6 2238 6 48 34 148 44 159 14 16 120 28 323 36
115 5 211 12 215 16 9 9 8 745 -1 768 -7 18 -34 18 -624 14 -796 -5 -838 -10
-950 -111 -80 -72 -119 -138 -139 -237 -16 -78 -17 -177 -10 -1384 4 -715 11
-1464 16 -1665 7 -295 6 -368 -4 -378 -27 -27 -145 104 -391 433 -58 78 -165
218 -187 246 -15 19 -62 78 -103 132 -83 108 -93 120 -115 145 -8 10 -55 69
-105 132 -49 63 -101 129 -116 145 -78 88 -109 125 -145 170 -39 50 -127 157
-168 205 -12 14 -59 70 -105 125 -47 55 -115 134 -152 175 -83 92 -130 147
-274 315 -27 33 -75 87 -105 120 -77 86 -194 223 -286 335 -43 52 -81 97 -85
100 -4 3 -51 61 -105 130 -53 69 -103 131 -110 138 -7 7 -53 63 -101 125 -48
62 -92 117 -98 122 -6 6 -31 35 -56 65 -24 30 -60 73 -80 95 -20 22 -74 82
-120 133 -46 52 -91 104 -99 117 -8 13 -32 35 -54 49 l-40 26 -498 0 -498 0
-2 -2282z"/>
<path d="M27350 12980 c-30 -5 -109 -14 -175 -20 -203 -20 -244 -26 -445 -67
-41 -8 -83 -19 -92 -24 -10 -5 -29 -9 -42 -9 -13 0 -46 -7 -72 -14 -27 -8 -76
-23 -109 -32 -96 -27 -329 -106 -340 -115 -5 -5 -15 -9 -23 -9 -8 0 -28 -6
-45 -14 -18 -7 -68 -29 -112 -47 -147 -62 -438 -219 -515 -279 -19 -15 -87
-66 -150 -114 -477 -357 -742 -716 -940 -1271 -35 -99 -42 -121 -57 -185 -91
-398 -94 -810 -7 -1155 24 -93 89 -290 129 -390 40 -98 141 -304 183 -373 73
-117 159 -244 207 -302 49 -60 195 -209 255 -260 14 -12 36 -31 50 -43 177
-152 398 -310 600 -428 175 -102 494 -239 675 -290 318 -89 355 -97 630 -144
279 -47 957 -45 1240 5 33 5 107 17 165 26 58 8 119 19 135 24 17 4 66 16 110
26 153 33 325 87 530 165 110 42 458 224 588 307 148 95 339 234 417 305 164
147 404 446 539 672 58 97 147 286 186 395 7 19 18 51 24 70 7 19 17 53 22 75
6 22 16 63 24 90 45 163 75 446 75 714 0 284 -25 409 -157 796 -7 22 -18 49
-22 60 -41 92 -53 119 -81 180 -32 68 -124 230 -165 290 -192 281 -546 603
-906 823 -108 65 -343 184 -449 227 -25 10 -59 24 -77 31 -17 8 -37 14 -45 14
-8 0 -17 3 -21 6 -7 8 -247 91 -297 104 -82 21 -126 33 -145 41 -11 4 -56 15
-100 24 -44 9 -100 23 -125 30 -87 26 -273 60 -415 77 -116 13 -584 19 -655 8z
m565 -900 c124 -9 238 -26 275 -39 14 -5 52 -17 85 -26 110 -31 180 -56 260
-91 17 -7 45 -19 64 -26 71 -27 285 -140 369 -195 327 -213 601 -530 729 -843
108 -265 133 -388 133 -668 0 -279 -27 -420 -125 -662 -138 -339 -335 -602
-599 -801 -162 -121 -411 -267 -546 -318 -30 -12 -64 -25 -75 -30 -80 -34
-114 -44 -250 -77 -265 -65 -376 -78 -640 -78 -231 0 -273 4 -525 51 -123 22
-242 55 -370 103 -232 86 -574 293 -749 454 -317 291 -494 598 -583 1011 -25
117 -37 506 -19 611 19 106 65 262 101 339 18 39 48 104 68 145 76 164 250
395 398 530 120 109 323 257 407 296 18 9 59 30 92 49 73 41 141 75 152 75 4
0 31 11 58 25 28 13 56 25 63 25 7 0 33 9 57 20 24 11 68 26 99 34 30 8 64 19
75 25 11 6 33 11 50 11 16 0 41 4 54 9 36 14 168 33 282 41 145 10 482 10 610
0z"/>
<path d="M14955 12970 c-137 -9 -228 -21 -335 -45 -36 -9 -78 -15 -93 -15 -16
0 -37 -5 -48 -10 -10 -6 -38 -15 -61 -19 -24 -5 -68 -16 -98 -25 -30 -9 -68
-21 -85 -26 -164 -47 -472 -191 -619 -288 -112 -74 -217 -168 -292 -261 -53
-67 -124 -167 -124 -176 0 -2 -16 -27 -35 -56 -19 -30 -35 -59 -35 -65 0 -6
-7 -17 -15 -24 -8 -7 -15 -22 -15 -34 0 -11 -7 -30 -15 -40 -8 -11 -15 -27
-15 -35 0 -9 -7 -29 -16 -46 -9 -16 -19 -50 -24 -75 -4 -25 -13 -72 -20 -105
-14 -71 -9 -375 8 -420 6 -16 15 -46 20 -65 16 -55 33 -99 70 -180 31 -66 96
-176 112 -190 3 -3 32 -37 63 -77 60 -75 173 -180 273 -253 32 -23 82 -60 110
-81 28 -22 55 -39 59 -39 4 0 23 -11 40 -25 34 -25 218 -126 320 -174 125 -59
487 -208 935 -382 41 -16 83 -34 93 -39 9 -6 39 -17 65 -26 26 -9 102 -40 168
-70 67 -30 125 -54 128 -54 3 0 65 -29 136 -65 158 -78 270 -151 351 -230 60
-58 149 -166 149 -181 0 -4 6 -15 13 -23 20 -24 47 -134 47 -193 0 -111 -67
-261 -162 -360 -55 -57 -167 -136 -251 -177 -251 -120 -628 -164 -917 -106
-371 75 -506 119 -765 248 -182 92 -322 177 -424 260 -86 70 -110 78 -151 50
-82 -56 -620 -571 -620 -594 0 -4 9 -14 20 -22 10 -7 54 -45 96 -83 257 -231
714 -467 1157 -594 280 -81 786 -139 1102 -126 196 9 248 15 560 72 325 59
653 200 926 400 136 100 289 268 389 427 44 70 116 242 130 312 5 22 13 52 19
67 32 85 36 398 6 553 -26 136 -31 153 -87 289 -56 137 -222 350 -366 469
-135 111 -379 264 -539 337 -48 22 -95 44 -104 49 -15 8 -126 54 -214 88 -22
8 -49 19 -60 24 -11 5 -51 19 -90 33 -38 13 -108 38 -155 55 -47 18 -105 39
-130 47 -25 9 -95 36 -157 60 -61 24 -116 44 -122 44 -6 0 -25 6 -43 14 -33
15 -134 53 -278 106 -107 39 -374 170 -461 226 -111 71 -230 177 -266 239 -57
96 -66 128 -67 235 -1 78 3 113 15 135 9 17 27 52 40 80 47 97 222 246 342
291 18 6 50 19 72 27 227 87 494 115 765 82 103 -13 152 -22 270 -53 19 -5 60
-21 91 -35 31 -15 59 -27 64 -27 11 0 155 -89 205 -128 25 -19 64 -56 88 -81
l42 -46 0 -141 c0 -101 4 -144 13 -152 8 -6 180 -11 488 -11 430 -2 477 0 489
14 20 24 21 539 1 644 -39 212 -222 398 -571 578 -63 33 -124 62 -135 65 -11
4 -45 16 -75 28 -98 39 -282 89 -460 126 -41 8 -95 20 -120 25 -25 5 -79 14
-120 19 -41 5 -104 14 -140 20 -95 14 -405 20 -555 10z"/>
<path d="M19430 12899 c-643 -4 -1124 -11 -1165 -17 -82 -12 -132 -31 -160
-62 -11 -13 -37 -33 -57 -46 -47 -30 -87 -83 -100 -131 -10 -39 -30 -1007 -21
-1030 7 -18 948 -19 959 -1 4 7 10 98 12 202 3 105 8 201 13 214 20 53 33 54
700 60 459 4 621 2 637 -7 l22 -12 2 -2312 3 -2312 555 3 c305 2 556 4 558 6
2 2 3 1045 2 2318 0 2049 1 2317 15 2328 11 9 141 11 602 7 578 -5 677 -11
693 -38 18 -28 33 -150 39 -309 l6 -165 488 0 c369 0 491 3 499 12 6 8 8 171
5 470 -5 536 -7 548 -96 670 -61 84 -148 125 -311 144 -121 15 -2042 18 -3900
8z"/>
<path d="M31698 12892 c-16 -19 -1 -794 15 -804 7 -4 137 -8 289 -8 228 0 279
-3 291 -14 19 -19 29 -1018 31 -3111 l1 -1490 541 -3 c492 -2 543 -1 555 14
11 14 14 181 17 958 1 517 5 964 8 993 5 50 7 53 50 74 121 58 755 41 984 -27
83 -25 123 -48 204 -119 75 -66 191 -213 257 -328 19 -32 41 -69 49 -82 22
-35 114 -193 145 -250 16 -27 36 -62 46 -77 11 -14 19 -29 19 -33 0 -4 13 -26
28 -49 15 -22 31 -49 34 -58 4 -9 19 -36 35 -60 15 -24 34 -55 43 -70 75 -134
241 -405 346 -563 77 -116 193 -208 327 -257 149 -54 268 -67 716 -78 222 -5
406 -8 410 -6 9 6 8 773 -1 782 -4 4 -40 6 -80 5 -75 -2 -264 24 -283 38 -5 5
-27 14 -47 20 -56 18 -172 147 -245 274 -20 34 -48 78 -63 97 -16 19 -47 71
-70 115 -24 44 -63 110 -87 147 -24 37 -48 78 -54 90 -11 26 -22 44 -64 108
-42 64 -53 82 -65 109 -37 83 -273 413 -367 513 -67 72 -68 91 -5 120 166 75
280 139 375 210 87 67 270 243 328 318 41 53 109 156 109 165 0 4 16 34 35 66
19 33 35 66 35 74 0 7 7 26 15 42 19 38 50 150 69 253 22 118 22 424 0 540
-25 131 -79 309 -114 375 -72 137 -88 163 -162 266 -112 158 -340 339 -562
447 -147 71 -202 94 -306 127 -47 15 -96 32 -110 38 -14 5 -43 14 -65 18 -22
4 -71 15 -110 24 -267 61 -363 65 -1625 70 -619 3 -1302 6 -1518 8 -311 1
-396 -1 -404 -11z m3132 -826 c270 -60 500 -234 604 -458 73 -158 80 -193 80
-398 0 -171 -2 -191 -26 -265 -51 -157 -100 -241 -217 -366 -76 -82 -133 -124
-251 -186 -134 -70 -100 -67 -875 -68 l-700 0 2 864 c2 598 6 868 14 877 6 7
23 15 37 17 15 3 304 4 642 2 533 -2 625 -4 690 -19z"/>
<path d="M42060 12889 c-116 -8 -228 -28 -275 -48 -11 -5 -49 -19 -84 -32 -67
-24 -139 -68 -206 -127 -37 -33 -207 -248 -285 -362 -50 -72 -131 -184 -187
-259 -26 -35 -50 -69 -52 -75 -2 -6 -32 -47 -65 -91 -34 -44 -75 -99 -90 -122
-16 -24 -32 -43 -37 -43 -4 0 -10 -8 -14 -19 -3 -10 -19 -31 -35 -47 -16 -16
-30 -33 -30 -37 0 -5 -24 -39 -52 -76 -29 -38 -60 -79 -68 -91 -8 -12 -37 -53
-65 -89 -27 -37 -68 -93 -90 -126 -22 -33 -42 -62 -45 -65 -8 -8 -90 -130 -90
-135 0 -2 -30 -48 -66 -101 -36 -54 -68 -104 -72 -113 -3 -9 -17 -32 -32 -51
-15 -19 -33 -48 -41 -64 -8 -16 -26 -38 -41 -49 -26 -20 -26 -20 -53 1 -24 19
-75 86 -75 99 0 3 -21 30 -47 60 -47 54 -76 93 -90 123 -4 8 -28 42 -53 75
-46 61 -97 132 -115 163 -5 9 -31 45 -57 78 -27 34 -48 66 -48 71 0 5 -7 18
-15 28 -8 11 -39 52 -68 90 -29 39 -65 89 -79 113 -13 23 -36 57 -51 75 -31
38 -134 174 -194 255 -23 31 -42 62 -42 67 -1 6 -9 18 -18 26 -10 9 -25 26
-33 39 -8 12 -46 65 -85 116 -38 52 -97 130 -130 175 -33 45 -69 91 -80 103
-12 12 -31 36 -44 52 -87 112 -297 297 -381 336 -142 65 -171 68 -640 71
l-415 2 -3 -388 -2 -387 26 -10 c14 -6 76 -10 137 -10 226 0 295 -27 399 -156
18 -23 67 -84 109 -135 69 -86 200 -258 281 -369 37 -50 45 -61 463 -600 164
-212 304 -389 310 -395 7 -5 52 -62 101 -125 49 -63 95 -122 102 -130 63 -77
87 -106 143 -180 36 -47 75 -105 87 -130 43 -91 45 -151 51 -1302 3 -603 8
-1099 11 -1101 7 -7 1108 -12 1115 -5 3 3 5 517 5 1142 0 1032 1 1141 16 1189
10 28 22 59 29 67 7 8 15 22 18 32 9 24 95 148 132 188 18 19 67 80 111 135
43 55 88 111 100 125 74 86 148 178 284 356 85 110 160 207 165 216 6 9 45 63
88 120 42 57 84 112 92 123 46 63 377 491 397 513 13 15 58 70 100 122 153
191 226 255 316 275 31 7 124 16 207 19 99 5 152 11 157 19 6 10 1 778 -6 784
-8 8 -606 10 -706 2z"/>
<path d="M26655 5309 c-201 -13 -415 -70 -600 -160 -259 -126 -473 -316 -568
-505 -73 -145 -101 -262 -101 -424 -1 -214 36 -340 156 -535 144 -233 303
-360 578 -463 194 -72 186 -70 365 -103 197 -35 582 -24 702 22 13 5 35 9 48
9 14 0 39 6 57 14 18 8 59 22 90 31 82 24 312 151 371 206 42 38 49 49 44 70
-9 36 -83 116 -128 139 -62 32 -92 27 -151 -28 -77 -69 -110 -90 -174 -112
-78 -27 -260 -57 -426 -70 -237 -18 -476 18 -610 93 -31 18 -84 47 -117 66
-102 57 -255 219 -309 326 -71 142 -88 376 -39 530 14 44 36 100 48 125 79
163 244 311 428 383 158 62 341 88 540 76 252 -16 394 -54 467 -128 30 -29 84
-120 99 -166 15 -46 51 -57 181 -58 159 0 164 3 164 129 0 89 -2 100 -36 170
-25 51 -53 89 -88 120 -60 55 -243 145 -336 167 -274 64 -475 87 -655 76z"/>
<path d="M30353 5311 c-47 -3 -88 -12 -95 -19 -10 -10 -13 -111 -13 -478 0
-402 -2 -466 -15 -475 -22 -14 -1247 -7 -1282 8 -14 7 -29 21 -33 32 -3 12
-10 180 -14 373 -5 216 -13 364 -19 380 -6 15 -16 57 -23 93 -8 45 -17 68 -29
75 -11 6 -135 10 -297 10 -219 0 -283 -3 -298 -14 -16 -11 -17 -22 -12 -84 12
-125 33 -156 116 -172 31 -6 66 -13 79 -16 51 -11 55 -40 63 -534 4 -250 8
-665 8 -922 l1 -468 24 -6 c14 -3 92 -4 175 -2 165 3 169 5 190 68 21 61 37
374 40 751 1 69 5 111 14 123 12 16 40 18 268 24 450 12 996 9 1011 -6 10 -10
15 -122 23 -477 8 -357 13 -467 23 -477 19 -19 342 -18 365 1 15 12 17 99 19
962 2 682 6 951 14 959 6 6 51 13 99 16 49 2 96 6 106 9 22 7 39 82 39 174 0
104 6 101 -251 99 -118 -1 -251 -4 -296 -7z"/>
<path d="M31263 5304 c-16 -7 -16 -64 -1 -155 14 -90 35 -109 119 -109 68 0
105 -12 113 -37 3 -10 10 -280 16 -598 11 -632 17 -701 67 -822 53 -125 122
-198 276 -294 129 -81 233 -121 462 -181 76 -19 380 -16 475 5 224 50 423 141
564 258 60 49 166 183 166 208 0 10 5 22 11 28 7 7 16 33 20 60 5 26 13 68 19
93 5 26 9 299 10 642 0 362 4 607 10 622 9 26 11 26 120 26 130 0 124 -7 133
137 9 130 24 124 -278 117 -132 -3 -265 -9 -295 -12 l-55 -7 -7 -80 c-4 -44
-7 -354 -6 -690 1 -836 -5 -875 -153 -986 -69 -51 -249 -126 -339 -140 -81
-13 -256 -7 -353 11 -136 26 -307 135 -381 243 -60 89 -64 136 -71 832 -7 647
-14 788 -39 813 -13 13 -62 16 -303 19 -158 1 -294 0 -300 -3z"/>
<path d="M34220 5301 c-24 -7 -25 -10 -28 -105 -4 -136 0 -141 116 -149 49 -4
96 -9 105 -13 34 -13 37 -61 37 -563 1 -715 15 -1348 31 -1367 10 -13 41 -15
181 -13 117 2 174 6 186 15 15 11 17 48 22 397 5 422 2 402 70 437 53 27 289
45 390 29 75 -11 75 -12 143 -81 37 -38 67 -73 67 -78 0 -6 15 -32 33 -58 31
-43 45 -67 114 -192 14 -25 31 -52 37 -60 15 -19 86 -140 86 -146 0 -10 111
-148 157 -196 57 -61 94 -71 253 -72 171 -1 170 -1 203 82 40 102 39 105 -45
151 -150 81 -140 71 -280 266 -27 39 -54 79 -59 90 -5 11 -17 32 -27 47 -17
26 -69 114 -103 175 -10 17 -36 59 -59 92 -58 84 -54 107 25 146 63 32 181
142 235 220 63 92 84 198 77 388 -5 123 -6 132 -42 203 -44 91 -80 133 -154
183 -73 49 -124 75 -197 99 -224 74 -330 82 -992 81 -307 -1 -568 -4 -582 -8z
m1205 -261 c169 -26 338 -65 374 -86 51 -30 103 -109 123 -188 23 -92 23 -144
-2 -225 -32 -110 -136 -222 -233 -251 -45 -13 -626 -33 -709 -24 -33 4 -63 13
-70 22 -17 20 -15 636 2 686 12 37 43 56 110 66 68 11 337 11 405 0z"/>
<path d="M39550 5302 c-85 -1 -158 -6 -161 -10 -10 -10 8 -183 20 -195 6 -6
59 -23 118 -37 161 -40 146 28 154 -690 4 -327 10 -710 13 -850 3 -140 6 -290
6 -332 0 -106 2 -108 148 -107 64 0 135 3 157 7 37 7 41 10 52 52 8 31 12 179
12 466 1 346 3 424 15 440 14 18 34 19 648 22 348 2 645 7 659 12 55 17 54 31
59 -502 l5 -493 50 -8 c71 -11 272 2 289 18 11 11 12 152 8 777 -4 772 6 1206
29 1235 18 21 45 15 57 -12 14 -29 46 -39 113 -33 74 8 89 26 89 114 0 63 -3
77 -24 101 l-24 28 -165 4 c-208 4 -397 -12 -414 -35 -9 -13 -12 -132 -13
-472 0 -350 -3 -458 -13 -464 -6 -5 -309 -7 -673 -6 -543 3 -664 5 -677 17
-15 12 -17 50 -17 365 0 344 -9 496 -33 546 -9 18 -23 26 -52 31 -55 10 -250
15 -435 11z"/>
<path d="M37900 5289 c-276 -44 -384 -73 -522 -138 -132 -61 -198 -103 -302
-191 -106 -87 -183 -171 -228 -248 -39 -64 -78 -148 -78 -164 0 -6 -6 -24 -14
-41 -51 -114 -67 -372 -33 -517 41 -176 134 -343 266 -483 159 -168 500 -337
793 -393 103 -20 441 -23 544 -5 117 21 264 58 319 81 11 4 40 15 65 24 25 10
119 54 210 99 164 82 165 82 168 118 6 68 -126 209 -181 195 -13 -3 -41 -20
-63 -37 -93 -75 -171 -110 -337 -153 -157 -40 -248 -49 -448 -43 -269 7 -403
46 -584 169 -86 58 -208 179 -240 238 -70 129 -90 187 -110 323 -14 94 -15
131 -6 180 6 34 13 82 17 107 6 41 28 98 57 145 23 38 92 140 107 158 26 32
173 142 225 169 100 52 206 97 243 104 20 4 53 14 72 22 26 11 79 15 205 15
159 1 179 -1 305 -32 177 -43 227 -59 273 -88 44 -28 73 -84 91 -175 13 -72
17 -73 171 -73 102 1 113 3 152 28 48 30 57 53 57 137 0 71 -32 127 -119 209
-73 68 -115 94 -233 146 -208 91 -629 148 -842 114z"/>
</g>
</svg>
